<svg width="114" height="111" viewBox="0 0 114 111" fill="none" xmlns="http://www.w3.org/2000/svg">
<path fill-rule="evenodd" clip-rule="evenodd" d="M15.7448 0.207899C11.0878 0.987051 6.66831 4.75533 4.92022 9.43758C4.68003 10.0803 4.37308 11.4201 4.23792 12.4147L3.99223 14.223L3.25518 14.3411C2.20933 14.5088 0.948749 15.4984 0.440076 16.5513C0.0138419 17.4333 0.00590282 17.646 0.00590282 28.0938V38.7376H57H113.994V28.0938C113.994 17.646 113.986 17.4333 113.56 16.5513C113.051 15.4984 111.791 14.5088 110.745 14.3411L110.008 14.223L109.762 12.4147C109.337 9.29012 108.136 6.78092 105.968 4.49201C99.5886 -2.24459 88.8015 -1.25332 83.7431 6.53453C83.2608 7.27676 82.6754 8.36941 82.4422 8.96255C81.9422 10.2335 81.426 12.5697 81.426 13.561V14.2616H76.3373H71.2485V13.561C71.2485 11.5268 70.1854 8.33943 68.854 6.38237C67.0945 3.79608 64.3728 1.71725 61.3743 0.669475C59.9055 0.156092 59.4817 0.101021 57 0.101021C54.5183 0.101021 54.0945 0.156092 52.6257 0.669475C47.6788 2.39809 44.1049 6.41378 43.0527 11.4252C42.887 12.2146 42.7515 13.1757 42.7515 13.561V14.2616H37.6627H32.574V13.561C32.574 12.5697 32.0578 10.2335 31.5578 8.96255C31.3246 8.36941 30.7392 7.27676 30.2569 6.53453C27.1056 1.68278 21.5102 -0.756658 15.7448 0.207899ZM20.4019 4.28865C24.1901 5.08025 27.488 8.38491 28.278 12.1809C28.4018 12.7755 28.503 13.4867 28.503 13.7617V14.2616H18.3254H8.14792V14.7615C8.14792 17.389 10.0354 20.8448 12.3374 22.4317L13.2338 23.0497L13.8597 22.3352C14.736 21.3351 16.4169 20.5593 17.9682 20.4389C22.2843 20.1038 25.56 24.5393 24.0167 28.6292C22.2472 33.318 15.948 33.997 13.2534 29.7889C12.9143 29.2597 12.5625 28.4676 12.4715 28.0291C12.3272 27.3324 12.1528 27.1425 11.0923 26.5265C10.4244 26.1386 9.13473 25.079 8.22628 24.1717C6.85944 22.8068 6.41143 22.1853 5.62796 20.5688C4.72746 18.7103 4.07691 16.3143 4.07691 14.8555V14.2616H6.11241H8.14792V13.6925C8.14792 11.5943 9.56218 8.58092 11.3205 6.93267C13.8545 4.55748 17.1275 3.60455 20.4019 4.28865ZM59.0764 4.28865C63.2862 5.16836 66.5943 8.8112 67.1002 13.1245L67.2335 14.2616H57.0281H46.8225L46.8255 14.8225C46.8394 17.4257 48.7163 20.8491 50.9883 22.4154L51.8608 23.0171L52.7387 22.1802C54.0375 20.9421 55.1707 20.4917 57 20.4869C58.264 20.4834 58.7255 20.5805 59.6832 21.0516C61.8667 22.1261 62.9964 23.9837 62.9964 26.4996C62.9964 28.2372 62.5736 29.3994 61.4936 30.6321C59.834 32.526 56.6664 33.1036 54.307 31.9426C52.701 31.1525 51.4624 29.5627 51.1066 27.8349C51.0103 27.3677 50.7101 27.075 49.7677 26.5292C49.0994 26.142 47.8089 25.0753 46.8998 24.1587C45.5548 22.8019 45.073 22.1341 44.3105 20.5693C43.4136 18.7291 42.7515 16.3133 42.7515 14.8821V14.2616H44.7412H46.7307L46.9756 12.7196C47.3275 10.5027 48.241 8.72391 49.8576 7.10788C52.3688 4.59766 55.6918 3.5815 59.0764 4.28865ZM97.751 4.28865C100.236 4.80795 102.844 6.60041 104.203 8.72248C104.971 9.92078 105.611 11.7306 105.781 13.1804L105.908 14.2616H95.7027H85.497V14.7615C85.497 17.3496 87.4357 20.9001 89.7124 22.481L90.5101 23.035L91.4448 22.1376C94.4071 19.2932 99.0824 20.0428 101.074 23.681C101.588 24.62 101.668 24.9853 101.673 26.3976C101.678 27.7817 101.592 28.207 101.106 29.1999C100.185 31.0778 98.4001 32.3273 96.3271 32.5443C93.3519 32.856 90.3937 30.7925 89.815 28.0018C89.6772 27.3369 89.4893 27.1355 88.4414 26.5285C87.7736 26.1418 86.4835 25.0753 85.5744 24.1587C84.2293 22.8019 83.7475 22.1341 82.985 20.5693C82.0882 18.7291 81.426 16.3133 81.426 14.8821V14.2616H83.4157H85.4053L85.6501 12.7196C86.0012 10.5082 86.9024 8.76001 88.5336 7.12542C91.0609 4.59297 94.3551 3.57906 97.751 4.28865ZM0.0537373 76.4204C0.10666 109.376 0.103403 111 0.103403 111H113.693C113.693 111 113.893 109.376 113.946 76.4204L114 42.8169H57H0L0.0537373 76.4204ZM43.7713 51.3152C44.087 51.502 44.4446 51.8734 44.5661 52.1406C44.8881 52.849 44.868 65.4635 44.5437 66.1768C44.0573 67.2468 43.7324 67.2929 36.6647 67.2929C32.0478 67.2929 29.995 67.2219 29.6168 67.0491C28.549 66.5616 28.503 66.2361 28.503 59.154C28.503 54.9294 28.5803 52.4565 28.722 52.1449C29.2329 51.0214 29.4666 50.9868 36.6136 50.9811C42.3973 50.9762 43.2673 51.0168 43.7713 51.3152ZM64.0947 51.2662C65.0964 51.7853 65.142 52.1276 65.142 59.1342C65.142 66.1409 65.0964 66.4831 64.0947 67.0022C63.3467 67.3897 50.8092 67.4316 49.9718 67.0491C48.9015 66.5604 48.8574 66.2432 48.8651 59.0934C48.8728 52.0535 48.9048 51.8118 49.8981 51.2603C50.6344 50.8513 63.3044 50.8566 64.0947 51.2662ZM84.4813 51.3152C84.797 51.502 85.1547 51.8734 85.2762 52.1406C85.5982 52.849 85.5781 65.4635 85.2538 66.1768C84.7673 67.2468 84.4425 67.2929 77.3748 67.2929C72.7579 67.2929 70.705 67.2219 70.3268 67.0491C69.259 66.5616 69.213 66.2357 69.213 59.1577C69.213 55.5122 69.2987 52.408 69.4072 52.122C69.8161 51.0443 70.1758 50.9927 77.3237 50.9837C83.1106 50.9766 83.9771 51.0168 84.4813 51.3152ZM104.805 51.2662C105.806 51.7853 105.852 52.1276 105.852 59.1342C105.852 66.1409 105.806 66.4831 104.805 67.0022C104.057 67.3897 91.5193 67.4316 90.6819 67.0491C89.6116 66.5604 89.5674 66.2432 89.5752 59.0934C89.5829 52.0535 89.6149 51.8118 90.6082 51.2603C91.3444 50.8513 104.014 50.8566 104.805 51.2662ZM32.574 59.1342V63.2135H36.645H40.716V59.1342V55.0549H36.645H32.574V59.1342ZM52.929 59.1342V63.2135H57H61.071V59.1342V55.0549H57H52.929V59.1342ZM73.284 59.1342V63.2135H77.355H81.426V59.1342V55.0549H77.355H73.284V59.1342ZM93.6391 59.1342V63.2135H97.7101H101.781V59.1342V55.0549H97.7101H93.6391V59.1342ZM23.3847 71.6628C24.3863 72.1819 24.4319 72.5242 24.4319 79.5308C24.4319 86.5375 24.3863 86.8798 23.3847 87.3988C22.6366 87.7864 10.0992 87.8282 9.26174 87.4458C8.19148 86.9571 8.14731 86.6399 8.15504 79.4901C8.16278 72.4501 8.19473 72.2085 9.18806 71.6569C9.9243 71.248 22.5943 71.2533 23.3847 71.6628ZM43.7397 71.6628C44.0483 71.8227 44.41 72.1942 44.5437 72.4883C44.868 73.2016 44.8881 85.8161 44.5661 86.5245C44.0558 87.6469 43.7654 87.6895 36.645 87.6895C29.5246 87.6895 29.2341 87.6469 28.7238 86.5245C28.38 85.7679 28.4368 73.0476 28.7871 72.4145C29.3375 71.4191 29.5787 71.3871 36.6043 71.3793C41.9071 71.3736 43.2872 71.4285 43.7397 71.6628ZM64.0947 71.6628C65.0964 72.1819 65.142 72.5242 65.142 79.5308C65.142 86.5375 65.0964 86.8798 64.0947 87.3988C63.3467 87.7864 50.8092 87.8282 49.9718 87.4458C48.9015 86.9571 48.8574 86.6399 48.8651 79.4901C48.8728 72.4501 48.9048 72.2085 49.8981 71.6569C50.6344 71.248 63.3044 71.2533 64.0947 71.6628ZM84.4498 71.6628C84.7584 71.8227 85.1201 72.1942 85.2538 72.4883C85.5781 73.2016 85.5982 85.8161 85.2762 86.5245C84.7659 87.6469 84.4754 87.6895 77.355 87.6895C70.2346 87.6895 69.9442 87.6469 69.4339 86.5245C69.0901 85.7679 69.1469 73.0476 69.4972 72.4145C70.0476 71.4191 70.2888 71.3871 77.3143 71.3793C82.6172 71.3736 83.9973 71.4285 84.4498 71.6628ZM104.805 71.6628C105.806 72.1819 105.852 72.5242 105.852 79.5308C105.852 86.5375 105.806 86.8798 104.805 87.3988C104.057 87.7864 91.5193 87.8282 90.6819 87.4458C89.6116 86.9571 89.5674 86.6399 89.5752 79.4901C89.5829 72.4501 89.6149 72.2085 90.6082 71.6569C91.3444 71.248 104.014 71.2533 104.805 71.6628ZM12.2189 79.5308V83.6102H16.2899H20.3609V79.5308V75.4515H16.2899H12.2189V79.5308ZM32.574 79.5308V83.6102H36.645H40.716V79.5308V75.4515H36.645H32.574V79.5308ZM52.929 79.5308V83.6102H57H61.071V79.5308V75.4515H57H52.929V79.5308ZM73.284 79.5308V83.6102H77.355H81.426V79.5308V75.4515H77.355H73.284V79.5308ZM93.6391 79.5308V83.6102H97.7101H101.781V79.5308V75.4515H97.7101H93.6391V79.5308ZM23.3847 92.0595C24.3863 92.5786 24.4319 92.9208 24.4319 99.9275C24.4319 106.934 24.3863 107.276 23.3847 107.795C22.6366 108.183 10.0992 108.225 9.26174 107.842C8.19148 107.354 8.14731 107.037 8.15504 99.8867C8.16278 92.8468 8.19473 92.6051 9.18806 92.0536C9.9243 91.6446 22.5943 91.6499 23.3847 92.0595ZM43.7713 92.1084C44.087 92.2953 44.4446 92.6667 44.5661 92.9339C44.8881 93.6423 44.868 106.257 44.5437 106.97C44.0573 108.04 43.7324 108.086 36.6647 108.086C32.0478 108.086 29.995 108.015 29.6168 107.842C28.549 107.355 28.503 107.029 28.503 99.9473C28.503 95.7227 28.5803 93.2498 28.722 92.9382C29.2329 91.8147 29.4666 91.78 36.6136 91.7743C42.3973 91.7694 43.2673 91.81 43.7713 92.1084ZM64.0947 92.0595C65.0964 92.5786 65.142 92.9208 65.142 99.9275C65.142 106.934 65.0964 107.276 64.0947 107.795C63.3467 108.183 50.8092 108.225 49.9718 107.842C48.9015 107.354 48.8574 107.037 48.8651 99.8867C48.8728 92.8468 48.9048 92.6051 49.8981 92.0536C50.6344 91.6446 63.3044 91.6499 64.0947 92.0595ZM12.2189 99.9275V104.007H16.2899H20.3609V99.9275V95.8482H16.2899H12.2189V99.9275ZM32.574 99.9275V104.007H36.645H40.716V99.9275V95.8482H36.645H32.574V99.9275ZM52.929 99.9275V104.007H57H61.071V99.9275V95.8482H57H52.929V99.9275Z" fill="white"/>
</svg>
