<svg width="153" height="97" viewBox="0 0 153 97" fill="none" xmlns="http://www.w3.org/2000/svg">
<path fill-rule="evenodd" clip-rule="evenodd" d="M24.9907 0.0794281C24.9052 0.121876 24.7812 0.212364 24.7153 0.280518C24.5925 0.407555 0.124078 43.8964 0.0430686 44.1317C-0.020538 44.3163 -0.0125059 44.7034 0.0593241 44.9145C0.0929442 45.0133 0.191892 45.17 0.279251 45.2626C0.396367 45.3869 1.86915 46.3045 5.88841 48.7575C8.88611 50.587 11.4148 52.1229 11.5078 52.1706C11.8458 52.344 12.3073 52.263 12.5857 51.9815C12.666 51.9003 17.3898 43.533 24.9437 30.0917C31.6692 18.1247 37.2014 8.26482 37.2376 8.18084C37.3442 7.93382 37.3294 7.53482 37.2043 7.27864C37.1477 7.16286 37.0536 7.02227 36.995 6.96618C36.9004 6.87561 26.2005 0.316683 25.7813 0.0923003C25.5611 -0.0256184 25.214 -0.03125 24.9907 0.0794281ZM127.307 0.0383213C127.144 0.104598 116.095 6.87209 115.994 6.9674C115.723 7.2237 115.604 7.71878 115.725 8.08989C115.822 8.39055 140.238 51.8137 140.404 51.9817C140.668 52.2499 141.15 52.3499 141.444 52.1977C141.515 52.1608 144.044 50.6232 147.062 48.781C151.136 46.2947 152.592 45.3878 152.71 45.2619C152.969 44.9878 153.07 44.5123 152.949 44.1452C152.872 43.9111 128.403 0.414987 128.272 0.27956C128.09 0.0909978 127.876 0.00181167 127.611 0.00464662C127.486 0.00598748 127.349 0.0211583 127.307 0.0383213ZM82.8628 11.917C71.2787 12.1852 62.2558 13.6389 60.0377 15.5945C59.9396 15.681 59.6828 15.9965 59.467 16.2957C59.2512 16.5948 58.2237 18.0118 57.1835 19.4446C51.6147 27.1158 49.2608 30.6234 47.5677 33.774C47.3015 34.2693 47.2666 34.3613 47.1252 34.9424C46.8856 35.927 46.838 36.2604 46.8354 36.9715C46.8328 37.6558 46.882 37.9243 47.0599 38.1981C47.3316 38.6164 48.0313 38.8139 49.2427 38.8144C52.3353 38.8156 55.2966 37.8708 58.231 35.9464C61.0682 34.0858 63.9275 31.1898 66.0167 28.0608C66.4169 27.4614 66.5749 27.2884 66.8516 27.1466C66.9229 27.11 68.5752 26.5714 70.5234 25.9495C74.4119 24.7084 74.4044 24.7103 74.8721 24.8448C75.1816 24.9338 78.7014 26.7462 81.9639 28.4964C88.7873 32.157 94.4822 35.495 98.6012 38.248C102.102 40.5881 108.207 44.8867 112.314 47.9039C116.319 50.8466 118.863 52.8203 122.219 55.5905L124.27 57.2838L124.469 57.1997C125.155 56.9096 126.476 56.1484 127.361 55.5328C128.859 54.4914 130.046 53.4306 132.046 51.3459C133.193 50.1516 133.892 49.4766 134.58 48.8989C134.813 48.7036 134.884 48.6227 134.861 48.5796C134.707 48.2935 115.58 14.2753 115.565 14.2601C115.554 14.2491 115.188 14.355 114.752 14.4956C112.356 15.2675 110.511 15.6068 108.699 15.6091C106.936 15.6114 105.359 15.3396 100.476 14.1922C96.496 13.2571 94.1885 12.786 91.9658 12.4546C88.7957 11.9821 86.3334 11.8367 82.8628 11.917ZM27.4247 32.0329L17.6236 49.4674L17.6992 49.5502C18.7531 50.7054 19.658 51.7879 21.6217 54.2426L23.9607 57.1665L24.0754 57.0224C24.6108 56.3501 25.0871 55.9053 25.7343 55.4735C28.774 53.4455 33.0133 54.0791 35.899 56.9928C36.8318 57.9347 37.624 59.2067 38.0327 60.4186C38.1141 60.6602 38.1919 60.8707 38.2055 60.8863C38.2191 60.9019 38.6934 60.2813 39.2594 59.5071C40.1419 58.3001 40.3569 58.0313 40.7687 57.62C41.0327 57.3562 41.4123 57.0245 41.6122 56.883C42.0621 56.5643 42.915 56.1355 43.4481 55.9601C45.9222 55.1459 48.7621 55.7089 51.0212 57.4612C51.4698 57.8093 52.1925 58.5217 52.5624 58.9807C53.6291 60.3042 54.3115 61.8992 54.5229 63.563C54.6256 64.3717 54.5644 65.796 54.4042 66.321C54.3878 66.3749 54.461 66.3851 55.0078 66.4046C57.1969 66.4827 59.2574 67.4047 60.8904 69.0369C62.3408 70.4866 63.2416 72.3072 63.5348 74.3814C63.6285 75.045 63.5768 76.5007 63.4399 77.0487C63.436 77.0646 63.7942 77.0852 64.2359 77.0946C65.0827 77.1126 65.4985 77.1695 66.2333 77.368C68.674 78.0274 70.8434 79.8417 71.9912 82.1835C72.6234 83.4733 72.9124 84.6956 72.9138 86.0852C72.915 87.1612 72.7539 88.0348 72.384 88.9585C72.1187 89.6208 71.8242 90.102 71.0066 91.2082C70.5983 91.7608 70.2761 92.2197 70.2908 92.2281C70.3463 92.2601 72.6808 93.0237 73.339 93.2252C75.2348 93.8058 77.5049 94.4025 78.9656 94.7043C79.3841 94.7908 79.9244 94.9025 80.1663 94.9526C81.319 95.1913 82.4927 95.3165 83.8381 95.3443C86.6271 95.4021 88.2121 94.9817 89.8897 93.7393C90.905 92.9875 91.9494 91.9234 92.83 90.7439C93.0181 90.4917 93.1589 90.2737 93.1427 90.2594C93.1265 90.245 89.7484 88.6083 85.6357 86.6221C81.5231 84.636 78.0808 82.956 77.9861 82.8888C77.5045 82.5466 77.2611 81.8075 77.4357 81.2172C77.5631 80.7863 77.8796 80.4188 78.2838 80.2325C78.5443 80.1123 79.1013 80.0679 79.3492 80.1475C79.4305 80.1735 83.0761 81.9253 87.4506 84.0403C93.9646 87.1897 95.4323 87.8858 95.5592 87.8861C95.6444 87.8863 95.9035 87.913 96.1349 87.9456C96.7163 88.0275 98.3723 88.0611 99.0226 88.0043C99.9316 87.9248 100.768 87.7208 101.317 87.4445C102.672 86.7632 103.615 85.0819 103.96 82.733C104.003 82.4381 104.041 82.0425 104.045 81.8541L104.052 81.5116L94.3946 75.9109C87.5578 71.946 84.6859 70.2613 84.5623 70.1429C84.463 70.0478 84.3311 69.8605 84.2563 69.7084C84.1319 69.4552 84.125 69.4197 84.125 69.038C84.125 68.6642 84.1338 68.6162 84.2471 68.3767C84.5928 67.6457 85.4608 67.2865 86.1897 67.5729C86.2742 67.6061 90.8012 70.2194 96.2496 73.3803L106.156 79.1273L107.15 79.1258C107.697 79.125 108.351 79.1036 108.604 79.0783C110.075 78.9307 111.213 78.6183 111.893 78.1757C112.252 77.9418 112.967 77.1994 113.262 76.7538C114.035 75.5856 114.38 74.1444 114.279 72.499C114.252 72.0501 114.192 71.5707 114.159 71.5456C114.154 71.5414 109.012 68.4497 102.733 64.6751C96.4533 60.9005 91.2347 57.743 91.1357 57.6584C90.867 57.4287 90.6771 57.0218 90.6543 56.6268C90.6253 56.1252 90.813 55.6606 91.1755 55.3366C91.2315 55.2865 91.386 55.1909 91.5189 55.1241C91.8037 54.9809 92.2376 54.936 92.5851 55.0139C92.7543 55.0519 95.112 56.4539 104.9 62.337L117.005 69.6132L117.566 69.7251C119.626 70.1357 121.353 69.8876 122.698 68.988C123.079 68.7334 123.737 68.0627 124.004 67.658C124.306 67.1982 124.592 66.6093 124.765 66.0911C125.365 64.2931 124.965 62.5914 123.548 60.9154C123.065 60.3434 122.798 60.1046 120.843 58.4963C118.688 56.7227 117.053 55.4346 113.296 52.55C108.637 48.9724 99.2114 42.3131 95.0065 39.6278C90.0415 36.457 83.1533 32.5689 75.5535 28.6475L74.3257 28.0139L71.4646 28.9252L68.6035 29.8365L68.2086 30.3987C67.0157 32.0969 65.9499 33.3637 64.4489 34.867C62.9379 36.3804 61.7178 37.3986 60.1855 38.425C57.2972 40.3597 54.3058 41.4991 51.2846 41.8153C49.4516 42.0071 48.2542 41.9808 47.1817 41.725C45.8062 41.3971 44.7711 40.6171 44.2212 39.4943C43.8781 38.7938 43.7571 38.25 43.728 37.278C43.6962 36.2128 43.8065 35.3712 44.1625 33.9646C44.3607 33.1813 44.39 33.1074 44.8258 32.2954C46.2831 29.5806 48.4726 26.229 52.1073 21.1494C52.9874 19.9195 53.1517 19.67 53.096 19.6472C53.0592 19.6322 52.1428 19.4888 51.0594 19.3286C48.7645 18.9891 47.1043 18.7161 46.0298 18.5014C43.9346 18.0827 42.2744 17.569 41.3062 17.0398C40.9108 16.8237 39.214 15.8092 38.1407 15.1472C37.6514 14.8454 37.2453 14.5984 37.2384 14.5984C37.2316 14.5984 32.8154 22.4439 27.4247 32.0329ZM29.2553 57.4299C28.3157 57.5361 27.5047 57.9188 26.8964 58.5431C26.7355 58.7082 25.8895 59.8155 24.879 61.1836C23.0916 63.6035 22.9105 63.8795 22.7205 64.473C22.5159 65.1118 22.4627 65.9982 22.5852 66.727C22.7929 67.9623 23.4551 69.1781 24.4296 70.1134C25.2735 70.9233 26.2231 71.4364 27.3074 71.6685C27.7984 71.7735 28.7785 71.7645 29.2315 71.6506C29.7064 71.5313 30.0988 71.3585 30.4907 71.0959C30.8017 70.8875 30.8694 70.8169 31.338 70.2119C32.3417 68.9161 34.7467 65.6802 34.8897 65.4333C35.488 64.4 35.5804 62.9115 35.1312 61.5441C35.0764 61.3774 34.9208 61.0169 34.7854 60.743C33.9631 59.0797 32.2879 57.7825 30.5841 57.4897C30.1537 57.4158 29.601 57.3909 29.2553 57.4299ZM45.2266 58.7343C44.2975 58.8611 43.4489 59.2836 42.8741 59.9055C42.7583 60.0308 40.3402 63.3047 37.5005 67.1808C33.0959 73.193 32.3061 74.2905 32.1238 74.6522C31.2679 76.3499 31.6558 78.5979 33.105 80.3387C33.9502 81.3538 35.042 82.0461 36.294 82.3608C36.6548 82.4515 36.7697 82.4622 37.3857 82.4628C37.9728 82.4635 38.1238 82.451 38.4111 82.3782C39.144 82.1925 39.7833 81.8283 40.257 81.3264C40.5216 81.0459 50.6358 67.2832 50.9168 66.8212C51.6993 65.5345 51.6942 63.7189 50.9035 62.1308C50.0596 60.4356 48.4653 59.161 46.7514 58.8112C46.2964 58.7183 45.6009 58.6833 45.2266 58.7343ZM54.2363 69.5372C53.6044 69.6164 52.8649 69.9117 52.3707 70.282C52.0709 70.5067 51.5088 71.257 45.8925 78.9282C43.9275 81.6121 43.6602 81.9942 43.4534 82.4144C43.0994 83.1337 42.9571 83.8421 43.0048 84.648C43.1594 87.256 45.1966 89.6031 47.782 90.1517C48.2824 90.2578 49.129 90.2653 49.5826 90.1675C50.0365 90.0697 50.4771 89.8969 50.8345 89.6768C51.499 89.2673 51.4397 89.343 55.8236 83.3077C60.1394 77.366 60.1248 77.3876 60.3326 76.6525C60.5915 75.737 60.551 74.6789 60.219 73.6844C59.7201 72.1899 58.5171 70.8022 57.1044 70.0916C56.2037 69.6385 55.1117 69.4275 54.2363 69.5372ZM63.471 80.2279C62.5853 80.3557 61.6738 80.8409 61.1348 81.4714C60.8555 81.7982 56.9056 87.2266 55.8546 88.7281C55.3386 89.4652 55.2461 89.6714 55.1292 90.3444C55.0817 90.6175 55.0719 90.8458 55.0876 91.3145C55.1172 92.1977 55.2683 92.7924 55.6688 93.6014C56.5369 95.3552 58.2104 96.6466 60.004 96.947C60.5299 97.0351 61.4259 97.0102 61.8521 96.8955C62.5578 96.7058 63.1358 96.376 63.6048 95.8955C63.7883 95.7076 64.8225 94.3402 66.4734 92.1028C67.8934 90.1785 69.1229 88.4985 69.2057 88.3694C69.8826 87.3139 70.0202 85.8147 69.5677 84.4258C68.6957 81.7485 65.9645 79.868 63.471 80.2279Z" fill="white"/>
</svg>
