<svg width="119" height="119" viewBox="0 0 119 119" fill="none" xmlns="http://www.w3.org/2000/svg">
<path fill-rule="evenodd" clip-rule="evenodd" d="M55.4236 0.230065C48.3143 1.19937 41.4594 4.97733 36.8553 10.4638C31.2541 17.1385 28.8417 25.939 30.2926 34.4049C30.9137 38.0285 31.2775 38.9979 34.521 45.6687C35.3312 47.335 38.4922 53.8686 41.5455 60.1879C44.5988 66.5071 47.4402 72.361 47.8595 73.1967C48.2789 74.0322 48.622 74.7871 48.622 74.8742C48.622 74.9803 44.0716 75.0323 34.7878 75.0323H20.9537L20.1824 76.6636C18.7918 79.6048 17.9321 81.4062 15.2142 87.0729C13.7389 90.1491 12.2709 93.2253 11.9519 93.9089C11.6329 94.5925 10.5327 96.8996 9.50705 99.0359C8.48125 101.172 6.59109 105.122 5.30644 107.814C4.02193 110.506 2.43227 113.826 1.77394 115.194C1.11561 116.561 0.447175 117.977 0.288535 118.34L0 119H59.4999H119L118.479 117.874C118.192 117.254 116.42 113.531 114.542 109.601C112.663 105.67 109.289 98.6086 107.043 93.9089C104.797 89.2092 101.858 83.0568 100.512 80.237L98.0654 75.11L84.2201 75.0704C76.6052 75.0485 70.3748 74.9739 70.3748 74.9044C70.3748 74.8352 71.7629 71.9165 73.4595 68.419C75.156 64.9213 77.9463 59.1581 79.6599 55.612C81.3737 52.0658 83.5246 47.6263 84.4396 45.7464C86.8309 40.8337 87.304 39.8011 87.6429 38.7551C89.6196 32.6543 89.6069 26.281 87.6061 20.2669C84.3877 10.5934 76.6818 3.4425 66.6675 0.836446C63.5318 0.0206354 58.8229 -0.233383 55.4236 0.230065ZM62.2541 19.3503C65.0043 20.0651 67.5255 22.1022 68.9021 24.7218C70.9678 28.6525 70.2717 33.5695 67.194 36.7871C64.3882 39.7205 60.6385 40.8158 56.7942 39.8251C53.1461 38.885 50.0438 35.6977 49.1745 31.9968C48.1248 27.5276 50.2309 22.6742 54.1915 20.4358C56.6938 19.0217 59.5235 18.6406 62.2541 19.3503ZM40.5424 81.4563V83.6854L38.639 83.7814C33.2179 84.055 29.1074 85.5392 24.7716 88.7889C22.0604 90.8209 20.7593 91.6529 19.5864 92.1045C18.3848 92.5672 17.2358 92.8524 17.2358 92.6882C17.2358 92.6388 18.3287 90.3063 19.6647 87.5051C21.0004 84.704 22.4324 81.6955 22.8468 80.8196L23.6002 79.2271H32.0714H40.5424V81.4563ZM55.0829 88.1428C57.4311 93.0038 59.3262 97.0071 59.294 97.0392C59.233 97.1002 57.9292 95.6078 55.0664 92.1999C51.9166 88.4502 49.6692 86.4515 47.1906 85.1954C46.1038 84.6446 43.7301 83.888 43.0887 83.888H42.7177V81.5549V79.222L46.7654 79.2633L50.8131 79.3048L55.0829 88.1428ZM76.0299 80.578C77.2135 86.602 81.8727 89.7272 90.913 90.561C91.826 90.6452 94.4593 90.7622 96.7648 90.8209L100.957 90.9278L103.374 95.9628L105.792 100.998L105.579 101.618C104.55 104.603 100.505 106.496 93.2929 107.37C90.5604 107.7 81.5153 107.655 79.1536 107.299C74.89 106.657 72.0289 105.828 68.8884 104.327C65.6869 102.797 62.9269 100.824 60.4634 98.3054L59.4862 97.3062L63.3183 89.3931C65.4258 85.0408 67.3886 80.9729 67.6796 80.3535L68.209 79.2271H71.9866H75.7643L76.0299 80.578ZM97.2828 83.1889C98.3075 85.3251 99.3151 87.4497 99.5221 87.91L99.8983 88.7471L95.6633 88.6559C91.3014 88.5619 88.9449 88.335 86.634 87.7862C81.9023 86.6625 79.1456 84.4165 78.2174 80.9291C78.0934 80.463 77.991 79.8888 77.9901 79.6531L77.9882 79.2245L86.7041 79.2647L95.4198 79.3048L97.2828 83.1889ZM40.5424 100.279V114.805H23.6063C14.2914 114.805 6.67018 114.779 6.67018 114.747C6.67018 114.714 8.78657 110.261 11.3733 104.85L16.0762 95.0125L17.428 94.8173C20.037 94.4407 21.6976 93.6659 24.7716 91.3911C27.4764 89.3894 28.3347 88.8292 29.899 88.0444C32.6446 86.6673 35.9213 85.9279 39.9597 85.7746L40.5424 85.7523V100.279ZM44.5045 86.3297C45.7748 86.719 47.5426 87.7071 48.8729 88.7714C50.2519 89.8746 51.5796 91.3052 55.0897 95.4703C59.5548 100.769 63.0609 103.766 67.2481 105.864C72.1841 108.337 77.2003 109.49 84.2033 109.762C87.141 109.876 91.9136 109.656 94.6136 109.283C100.538 108.464 104.602 106.77 106.392 104.372C106.701 103.959 107 103.673 107.057 103.737C107.142 103.831 112.002 113.954 112.278 114.611C112.343 114.766 105.336 114.805 77.5387 114.805H42.7177V100.36V85.9155L43.2226 86.0036C43.5004 86.0519 44.0772 86.1987 44.5045 86.3297Z" fill="white"/>
</svg>
