<svg width="112" height="144" viewBox="0 0 112 144" fill="none" xmlns="http://www.w3.org/2000/svg">
<path fill-rule="evenodd" clip-rule="evenodd" d="M36.8945 0.0724275C30.6926 0.694702 25.7561 2.54918 21.0628 6.01992C20.3191 6.56985 19.2607 7.44871 18.7108 7.97291L17.7109 8.92617L19.242 10.4688L20.7732 12.0115L21.6675 11.1999C25.81 7.44003 30.8317 5.18884 36.5269 4.53848C43.5505 3.73638 51.0706 6.12564 56.4389 10.8647L57.7283 12.003L59.2503 10.4752L60.7725 8.94764L60.1892 8.33845C59.2744 7.38283 56.9049 5.53454 55.396 4.59936C51.4385 2.14673 46.7216 0.558102 42.113 0.125656C40.5918 -0.0169731 38.045 -0.0429992 36.8945 0.0724275ZM35.7919 7.84395C32.5807 8.36418 29.4912 9.54183 26.8249 11.2618C25.7444 11.9587 23.9666 13.3681 23.4105 13.9685L23.083 14.3221L24.6097 15.844L26.1363 17.3658L27.1149 16.5355C34.2436 10.4861 44.4822 10.4952 51.4224 16.5571L52.3526 17.3697L53.8946 15.84L55.4368 14.3102L54.4344 13.3791C51.7515 10.8872 47.8023 8.91058 43.7629 8.03746C41.9363 7.64265 37.673 7.53914 35.7919 7.84395ZM37.2862 15.5743C34.2695 16.0153 31.1938 17.4408 29.196 19.3243L28.627 19.8607L30.168 21.4021L31.709 22.9434L32.631 22.2002C36.5706 19.0249 42.3601 19.1039 46.1111 22.3842L46.7683 22.959L48.3362 21.3848L49.904 19.8105L49.2425 19.2319C47.6971 17.88 45.4822 16.6349 43.6322 16.0779C41.735 15.5067 39.1511 15.3017 37.2862 15.5743ZM38.5504 27.1089C36.6595 27.6182 37.278 27.0424 18.9168 45.3864C9.39311 54.9014 1.40657 62.9773 1.16916 63.3327C0.117075 64.9077 -0.285854 67.298 0.212037 69.011C0.767112 70.921 0.798277 70.9574 8.56315 78.7414L15.9245 86.121L15.6064 87.2697C11.8332 100.896 9.79428 108.207 9.49895 109.168C9.01459 110.745 8.81731 112.25 8.81731 114.367C8.81731 121.201 12.3578 128.364 19.0305 135.031C23.9776 139.974 29.0345 142.833 34.5424 143.801C36.2191 144.096 40.0458 144.056 41.819 143.725C45.6542 143.01 49.6207 141.236 52.9421 138.75C53.6158 138.246 55.6914 136.328 57.5544 134.489L60.9419 131.144L64.1648 134.37C67.529 137.738 68.13 138.198 69.8126 138.692C71.3667 139.149 73.3633 138.923 75.0069 138.105C75.6288 137.796 79.0925 134.409 93.0922 120.423C102.616 110.908 110.603 102.832 110.84 102.476C111.875 100.927 112.267 98.6839 111.813 96.9123C111.343 95.0793 111.048 94.6955 106.894 90.5155L102.987 86.5838L103.417 86.1043C103.654 85.8405 104.193 85.2609 104.615 84.8161C105.037 84.3713 105.568 83.6103 105.794 83.1251C106.158 82.3436 106.205 82.0746 106.205 80.7694C106.205 79.4013 106.171 79.2257 105.723 78.316C105.109 77.0692 103.529 75.5519 102.409 75.1354C101.302 74.7234 100.257 74.6184 99.2692 74.8198C97.5503 75.1704 97.1051 75.5278 91.9784 80.671C86.3021 86.3659 86.3602 86.2821 86.3602 88.7861C86.3602 90.181 86.4002 90.4114 86.7734 91.1719C87.3549 92.3563 88.7279 93.7038 89.9373 94.2769C90.8231 94.6967 91.0513 94.7413 92.3137 94.7413C94.3697 94.7413 94.9462 94.4315 97.3857 92.0153C98.4438 90.967 99.3715 90.1095 99.4471 90.1095C99.5226 90.1095 100.165 90.6877 100.875 91.3945L102.166 92.6795L84.0064 110.844L65.8471 129.009L47.8078 110.961C37.8861 101.035 29.7467 92.8487 29.7202 92.7693C29.6938 92.6898 29.8734 91.6784 30.1193 90.5217C30.7692 87.4665 30.9475 86.3925 31.592 81.6547C32.5096 74.9089 32.6604 73.4222 32.6739 70.9943C32.693 67.5482 32.2841 66.16 30.7667 64.5207C29.1859 62.8126 27.0955 62.2096 25.2079 62.9172C24.5421 63.1667 24.0879 63.4853 23.3554 64.217C21.7365 65.8339 21.3494 66.8307 18.6742 76.2752C18.0232 78.5733 17.4549 80.4894 17.4111 80.5332C17.3673 80.577 15.3487 78.6296 12.9254 76.2057L8.51934 71.7984L26.7127 53.6054L44.906 35.4124L53.0588 43.5665L61.2115 51.7206L59.2671 53.6991C56.7928 56.2164 56.519 56.7309 56.519 58.8634C56.519 60.204 56.5593 60.4182 56.9746 61.2896C57.56 62.518 58.838 63.7931 60.1132 64.421C60.9795 64.8475 61.195 64.8916 62.396 64.8868C64.83 64.8769 64.7252 64.9502 70.4399 59.2613C75.8327 53.8929 76.1797 53.4562 76.4141 51.7415C76.6739 49.8407 76.1167 48.2308 74.6841 46.7435C73.1164 45.1159 70.9674 44.4695 69.0065 45.0358C67.7884 45.3875 67.2802 45.7204 65.9046 47.0677L64.7061 48.2417L54.6998 38.2732C49.1962 32.7905 44.5097 28.1804 44.2852 28.0283C42.7488 26.9876 40.3988 26.6109 38.5504 27.1089ZM28.8345 43.8881C29.49 44.4814 29.3974 44.5961 23.5519 50.4432C18.9771 55.0194 17.9303 55.9961 17.6018 55.9961C17.1148 55.9961 16.6835 55.4178 16.8075 54.9311C16.8541 54.7486 19.3606 52.1346 22.3775 49.122C28.099 43.409 28.2079 43.3208 28.8345 43.8881ZM78.68 55.0263C77.4883 55.4144 76.6334 56.1539 71.9988 60.8066C68.0734 64.7468 67.2791 65.6157 66.9564 66.3207C65.8242 68.7944 66.2543 71.0475 68.2368 73.0259C69.7759 74.562 71.4821 75.1699 73.3095 74.8332C75.094 74.5043 75.425 74.2471 80.3079 69.3951C82.8003 66.9184 85.0676 64.5832 85.3465 64.2054C86.5616 62.5597 86.7696 60.3509 85.8871 58.4647C85.3209 57.2545 83.9719 55.8823 82.7916 55.3162C82.1039 54.9864 81.7084 54.9044 80.6272 54.8678C79.7826 54.8391 79.0784 54.8964 78.68 55.0263ZM88.3288 65.1563C87.8755 65.3475 87.3132 65.6427 87.0793 65.8124C86.8456 65.9821 84.5242 68.2596 81.9208 70.8734C76.3716 76.4452 76.3712 76.4456 76.3668 78.7874C76.3644 80.0587 76.4066 80.2741 76.8378 81.1845C78.0232 83.6878 80.5638 85.1519 83.1203 84.8049C84.9124 84.5617 85.2248 84.3188 90.4342 79.1191C95.5742 73.9887 95.931 73.5439 96.2802 71.83C96.4829 70.8355 96.3764 69.7956 95.9555 68.6644C95.5635 67.6106 94.0926 66.0544 92.8681 65.3979C92.0388 64.9534 91.806 64.899 90.5497 64.8562C89.3456 64.8153 89.0397 64.8567 88.3288 65.1563ZM89.3606 111.808C91.0394 112.306 92.1095 114.108 91.75 115.831C91.4326 117.351 90.4417 118.342 88.922 118.66C86.5059 119.164 84.2879 116.946 84.7923 114.53C84.9925 113.571 85.5239 112.761 86.283 112.259C87.3185 111.574 88.1579 111.451 89.3606 111.808Z" fill="white"/>
</svg>
