<svg width="26" height="26" viewBox="0 0 26 26" fill="none" xmlns="http://www.w3.org/2000/svg">
<path d="M13 18.3333C14.4145 18.3333 15.771 17.7714 16.7712 16.7712C17.7714 15.771 18.3333 14.4144 18.3333 12.9999C18.3333 11.5854 17.7714 10.2289 16.7712 9.2287C15.771 8.2285 14.4145 7.6666 13 7.6666C11.5855 7.6666 10.2289 8.2285 9.22875 9.2287C8.22855 10.2289 7.66665 11.5854 7.66665 12.9999C7.66665 14.4144 8.22855 15.771 9.22875 16.7712C10.2289 17.7714 11.5855 18.3333 13 18.3333V18.3333Z" stroke="white" stroke-width="2" stroke-linecap="round" stroke-linejoin="round"/>
<path d="M1 18.3333V7.66667C1 5.89856 1.70238 4.20286 2.95262 2.95262C4.20286 1.70238 5.89856 1 7.66667 1H18.3333C20.1014 1 21.7971 1.70238 23.0474 2.95262C24.2976 4.20286 25 5.89856 25 7.66667V18.3333C25 20.1014 24.2976 21.7971 23.0474 23.0474C21.7971 24.2976 20.1014 25 18.3333 25H7.66667C5.89856 25 4.20286 24.2976 2.95262 23.0474C1.70238 21.7971 1 20.1014 1 18.3333Z" stroke="white" stroke-width="2"/>
<path d="M20.3334 5.68016L20.3467 5.66543" stroke="white" stroke-width="2" stroke-linecap="round" stroke-linejoin="round"/>
</svg>
