<svg width="24" height="24" viewBox="0 0 24 24" fill="none" xmlns="http://www.w3.org/2000/svg">
<path d="M23.106 22.1957L23.2122 22.0896L23.106 21.9835L15.9323 14.8134C16.9434 13.5966 17.5963 12.1216 17.8164 10.5533C18.0429 8.93914 17.8014 7.29386 17.1205 5.81273C16.4396 4.33159 15.3479 3.07677 13.975 2.19713C12.6021 1.3175 11.0055 0.849965 9.37472 0.85C8.00102 0.849894 6.64761 1.18164 5.4298 1.81698C4.21199 2.45233 3.16584 3.37245 2.38045 4.49899C1.59507 5.62553 1.09373 6.92511 0.91913 8.28706C0.74453 9.649 0.901847 11.0329 1.37768 12.321C1.85351 13.6091 2.63376 14.7631 3.65197 15.6848C4.67018 16.6066 5.89618 17.2687 7.22555 17.6147C8.55492 17.9608 9.94828 17.9807 11.287 17.6725C12.5805 17.3748 13.786 16.7793 14.8078 15.9344L21.9831 23.1061L22.0892 23.2121L22.1952 23.1061L23.106 22.1957ZM4.47038 4.46811C5.77108 3.16806 7.53522 2.43768 9.37473 2.43768C11.2142 2.43768 12.9784 3.16806 14.2791 4.46811C15.5798 5.76816 16.3105 7.5314 16.3105 9.36992C16.3105 11.2084 15.5798 12.9717 14.2791 14.2717C12.9784 15.5718 11.2142 16.3022 9.37473 16.3022C7.53522 16.3022 5.77108 15.5718 4.47038 14.2717C3.16968 12.9717 2.43897 11.2084 2.43897 9.36992C2.43897 7.5314 3.16968 5.76816 4.47038 4.46811Z" fill="white" stroke="#0C73FE" stroke-width="0.3"/>
</svg>
