<svg width="26" height="26" viewBox="0 0 26 26" fill="none" xmlns="http://www.w3.org/2000/svg">
<path fill-rule="evenodd" clip-rule="evenodd" d="M7.02977 5.17895C6.89184 5.20453 6.8229 5.22079 6.73854 5.24762C6.46736 5.33387 6.21498 5.49771 6.02903 5.70818C5.83128 5.93201 5.71096 6.17171 5.64447 6.47431L5.62045 6.58366V9.66647V12.7493L5.64412 12.8662C5.76118 13.4445 6.15507 13.903 6.69781 14.0927C6.9001 14.1635 6.97559 14.1752 7.23259 14.1757C7.48653 14.1762 7.5457 14.1677 7.74744 14.1017C7.99192 14.0218 8.18413 13.9018 8.37741 13.7082C8.62055 13.4647 8.76001 13.2078 8.83134 12.8718L8.85515 12.7597L8.85823 9.76542C8.86039 7.66543 8.85793 6.73542 8.84999 6.65156C8.84377 6.58579 8.8299 6.49167 8.81915 6.44239C8.69835 5.88814 8.2876 5.42977 7.75264 5.25225C7.57351 5.1928 7.49712 5.18099 7.26899 5.17744C7.15172 5.17562 7.04407 5.17629 7.02977 5.17895ZM18.5306 5.18318C18.4193 5.20058 18.2584 5.24594 18.1454 5.2918C17.668 5.4854 17.3099 5.90416 17.1867 6.41268C17.1402 6.60498 17.1378 6.67598 17.1422 7.75535C17.1462 8.73873 17.147 8.77396 17.1681 8.87069C17.2665 9.32263 17.4982 9.66973 17.8677 9.91881C18.3365 10.2349 18.9749 10.274 19.4849 10.018C19.9818 9.76854 20.3133 9.28901 20.3738 8.73215C20.3886 8.59572 20.3887 6.75979 20.3739 6.62232C20.3341 6.25348 20.1744 5.91649 19.9151 5.65435C19.6796 5.41625 19.4352 5.28219 19.0898 5.20165C19.0154 5.18429 18.9547 5.17921 18.7934 5.17681C18.6818 5.17515 18.5636 5.17801 18.5306 5.18318ZM1.41841 10.5009C1.34008 10.5123 1.1406 10.5623 1.06948 10.5885C0.843311 10.6717 0.660553 10.7896 0.481259 10.9681C0.21626 11.2318 0.061264 11.5472 0.0143759 11.918C-0.000424868 12.0352 -0.00198492 12.1755 0.00166587 13.067C0.00520224 13.9326 0.00821862 14.095 0.0220833 14.1676C0.0882654 14.5141 0.237884 14.7987 0.481259 15.0409C0.71181 15.2703 0.951701 15.4031 1.27359 15.4796C1.39048 15.5074 1.41075 15.509 1.62643 15.5087C1.87305 15.5083 1.94035 15.4985 2.13608 15.4346C2.69777 15.2512 3.12224 14.7559 3.22291 14.1662C3.24287 14.0493 3.2438 13.9978 3.2438 13.0045C3.2438 12.0111 3.24287 11.9596 3.22291 11.8427C3.12202 11.2518 2.6905 10.7497 2.13192 10.5735C1.94129 10.5133 1.86859 10.502 1.65243 10.4991C1.54088 10.4976 1.43557 10.4984 1.41841 10.5009ZM24.1968 10.5015C24.108 10.5125 23.9368 10.5524 23.8489 10.5825C23.3115 10.7664 22.9152 11.214 22.7854 11.7838C22.7626 11.8839 22.7624 11.8953 22.7587 12.9316C22.7548 14.0584 22.7562 14.0974 22.808 14.3008C22.9412 14.8231 23.3464 15.2623 23.8483 15.4284C24.0439 15.4931 24.1432 15.5082 24.3736 15.5082C24.5495 15.5082 24.5981 15.5046 24.6885 15.485C24.9804 15.4219 25.2065 15.3124 25.4259 15.128C25.6908 14.9053 25.885 14.5819 25.9589 14.24C25.9992 14.0541 26.0031 13.9213 25.9985 12.9159C25.9942 11.9957 25.9932 11.9532 25.9721 11.8421C25.8826 11.369 25.6179 10.9775 25.2216 10.732C25.0419 10.6207 24.7895 10.5322 24.5744 10.5052C24.4938 10.4951 24.266 10.4928 24.1968 10.5015ZM18.5306 11.8383C18.3487 11.8668 18.107 11.95 17.9581 12.0355C17.5824 12.2513 17.2988 12.6257 17.191 13.0485C17.1382 13.2555 17.14 13.14 17.14 16.3321C17.14 19.5241 17.1382 19.4086 17.191 19.6156C17.2987 20.038 17.5828 20.4131 17.9581 20.6286C18.1189 20.7209 18.3597 20.8012 18.5537 20.8273C18.6877 20.8452 18.9735 20.8341 19.095 20.8061C19.3134 20.7558 19.5193 20.6677 19.6787 20.5563C20.0721 20.2815 20.3229 19.8594 20.3739 19.3867C20.389 19.246 20.389 13.4181 20.3739 13.2775C20.3341 12.9086 20.1744 12.5716 19.9151 12.3095C19.6796 12.0714 19.4352 11.9373 19.0898 11.8568C19.0154 11.8394 18.9547 11.8344 18.7934 11.832C18.6818 11.8303 18.5636 11.8332 18.5306 11.8383ZM7.07657 15.8269C6.801 15.8565 6.51983 15.9622 6.29651 16.1201C6.24502 16.1565 6.15117 16.2378 6.08796 16.3008C5.8608 16.5272 5.71559 16.7985 5.64365 17.1309C5.62048 17.238 5.62045 17.2398 5.62045 18.3213C5.62045 19.403 5.62048 19.4046 5.64382 19.5198C5.77551 20.1699 6.23846 20.6498 6.8804 20.8017C6.99574 20.829 7.01865 20.8309 7.23259 20.8311C7.43468 20.8313 7.47402 20.8285 7.56938 20.8071C7.85087 20.744 8.09827 20.6201 8.30572 20.4384C8.57166 20.2055 8.75547 19.8866 8.83112 19.527C8.85453 19.4157 8.85474 19.4075 8.85817 18.4203C8.86227 17.2394 8.85928 17.1877 8.77189 16.9242C8.61637 16.4553 8.24408 16.0772 7.7745 15.9112C7.5733 15.8401 7.28146 15.8048 7.07657 15.8269Z" fill="white"/>
<path fill-rule="evenodd" clip-rule="evenodd" d="M12.7966 0.00683839C12.6853 0.0242419 12.5244 0.0695992 12.4113 0.115457C11.934 0.309061 11.5759 0.727818 11.4527 1.23634C11.4062 1.42865 11.4038 1.49964 11.4082 2.57902C11.4122 3.56239 11.413 3.59764 11.4341 3.69437C11.5325 4.14631 11.7642 4.49343 12.1337 4.74251C12.6025 5.05855 13.2409 5.09769 13.7509 4.84166C14.2477 4.59224 14.5793 4.11269 14.6398 3.55583C14.6546 3.4194 14.6547 1.58345 14.6399 1.44598C14.6001 1.07714 14.4404 0.740149 14.1811 0.478014C13.9456 0.239916 13.7012 0.105854 13.3558 0.0253145C13.2814 0.00795267 13.2207 0.00287003 13.0594 0.000474574C12.9478 -0.00119183 12.8296 0.00167254 12.7966 0.00683839ZM12.7966 6.66204C12.6146 6.69048 12.373 6.7737 12.2241 6.85921C11.8484 7.07497 11.5648 7.4494 11.457 7.87224C11.4042 8.07925 11.406 7.96372 11.406 11.1558C11.406 14.3479 11.4042 14.2323 11.457 14.4393C11.5647 14.8617 11.8488 15.2369 12.2241 15.4524C12.3849 15.5447 12.6257 15.625 12.8197 15.651C12.9537 15.669 13.2395 15.6578 13.361 15.6298C13.5793 15.5796 13.7853 15.4914 13.9447 15.3801C14.3381 15.1053 14.5889 14.6831 14.6399 14.2104C14.655 14.0698 14.655 8.24179 14.6399 8.10118C14.6001 7.73234 14.4404 7.39535 14.1811 7.13321C13.9456 6.89512 13.7012 6.76105 13.3558 6.68052C13.2814 6.66315 13.2207 6.65807 13.0594 6.65568C12.9478 6.65401 12.8296 6.65687 12.7966 6.66204Z" fill="white"/>
<path fill-rule="evenodd" clip-rule="evenodd" d="M12.7966 25.9932C12.6853 25.9758 12.5244 25.9304 12.4113 25.8845C11.934 25.6909 11.5759 25.2722 11.4527 24.7637C11.4062 24.5714 11.4038 24.5004 11.4082 23.421C11.4122 22.4376 11.413 22.4024 11.4341 22.3056C11.5325 21.8537 11.7642 21.5066 12.1337 21.2575C12.6025 20.9414 13.2409 20.9023 13.7509 21.1583C14.2477 21.4078 14.5793 21.8873 14.6398 22.4442C14.6546 22.5806 14.6547 24.4165 14.6399 24.554C14.6001 24.9229 14.4404 25.2598 14.1811 25.522C13.9456 25.7601 13.7012 25.8941 13.3558 25.9747C13.2814 25.992 13.2207 25.9971 13.0594 25.9995C12.9478 26.0012 12.8296 25.9983 12.7966 25.9932ZM12.7966 19.338C12.6146 19.3095 12.373 19.2263 12.2241 19.1408C11.8484 18.925 11.5648 18.5506 11.457 18.1278C11.4042 17.9207 11.406 18.0363 11.406 14.8442C11.406 11.6521 11.4042 11.7677 11.457 11.5607C11.5647 11.1383 11.8488 10.7631 12.2241 10.5476C12.3849 10.4553 12.6257 10.375 12.8197 10.349C12.9537 10.331 13.2395 10.3422 13.361 10.3702C13.5793 10.4204 13.7853 10.5086 13.9447 10.6199C14.3381 10.8947 14.5889 11.3169 14.6399 11.7896C14.655 11.9302 14.655 17.7582 14.6399 17.8988C14.6001 18.2677 14.4404 18.6047 14.1811 18.8668C13.9456 19.1049 13.7012 19.2389 13.3558 19.3195C13.2814 19.3368 13.2207 19.3419 13.0594 19.3443C12.9478 19.346 12.8296 19.3431 12.7966 19.338Z" fill="white"/>
</svg>
