<svg width="24" height="27" viewBox="0 0 24 27" fill="none" xmlns="http://www.w3.org/2000/svg">
<path d="M11.9979 0C15.3309 0 18.3451 1.31419 20.6424 3.76903C22.3876 5.61698 23.3677 7.57735 23.8696 10.1599C24.0418 11.0189 24.0418 13.3602 23.8792 14.3262C23.3464 17.3978 21.6967 20.1511 19.26 22.0357C18.3912 22.7069 16.2672 23.8727 15.9269 23.8727C15.7985 23.8727 15.7889 23.7417 15.8445 23.2014C15.9505 22.3369 16.05 22.1612 16.5294 21.956C17.2923 21.6329 18.5966 20.6822 19.3937 19.8701C20.7874 18.4488 21.7773 16.6687 22.2581 14.7192C22.5588 13.5185 22.5192 10.8519 22.1907 9.61959C21.1539 5.69557 18.0102 2.65022 14.1657 1.83048C13.0518 1.59799 11.0167 1.59799 9.8857 1.83048C5.99517 2.65022 2.77339 5.85056 1.79327 9.8761C1.53112 10.972 1.53112 13.6397 1.79327 14.7312C2.4449 17.3978 4.13444 19.8406 6.34613 21.2967C6.78162 21.5925 7.30485 21.8938 7.52314 21.9855C8.00143 22.195 8.10843 22.3729 8.19617 23.2298C8.25181 23.7592 8.24004 23.9065 8.11913 23.9065C8.04102 23.9065 7.45573 23.65 6.83619 23.3488L6.78055 23.304C3.25275 21.5357 0.995048 18.5406 0.171145 14.5544C-0.0289452 13.5251 -0.0685349 11.0757 0.132626 10.1315C0.645157 7.59591 1.62635 5.61807 3.2581 3.86727C5.61104 1.33602 8.63701 0 12.0022 0H11.9979ZM12.1937 4.0943C12.7227 4.09302 13.2505 4.1442 13.7698 4.24712C17.7449 5.1509 20.5579 9.2059 20.0111 13.2293C19.7939 14.8545 19.2482 16.1862 18.2788 17.4251C17.7994 18.0505 16.6342 19.0973 16.4288 19.0973C16.3945 19.0973 16.3614 18.6989 16.3614 18.2208V17.3388L16.952 16.6173C19.1915 13.8831 19.031 10.0627 16.5893 7.56207C15.6423 6.58407 14.5434 6.00883 13.1278 5.74905C12.2151 5.57332 12.0246 5.57332 11.0659 5.73704C9.60643 5.97609 8.47972 6.54914 7.47605 7.56207C5.02468 10.0409 4.86204 13.8831 7.10369 16.6173L7.69434 17.3388V18.2262C7.69434 18.7153 7.65475 19.1071 7.60446 19.1071C7.56594 19.1071 7.23102 18.8746 6.87364 18.5843L6.82335 18.5668C5.63672 17.6008 4.58919 15.8893 4.1537 14.2062C3.89262 13.1889 3.89262 11.2623 4.16547 10.2494C4.88451 7.51514 6.86294 5.39431 9.60001 4.39993C10.1853 4.18926 11.2146 4.07575 12.1851 4.09321L12.1937 4.0943ZM12.0043 8.44293C12.4505 8.44293 12.8903 8.53462 13.2145 8.7049C13.9046 9.07492 14.4803 9.78441 14.6964 10.5354C15.3598 12.8319 12.9748 14.8447 10.8113 13.8154H10.7952C9.77549 13.3319 9.22872 12.4226 9.21695 11.2394C9.21695 10.1708 9.79582 9.24411 10.8048 8.69835C11.1226 8.52807 11.5635 8.44184 12.0086 8.44184L12.0043 8.44293ZM11.9925 15.3283C13.4039 15.3228 14.4225 15.8336 14.8013 16.7374C15.0848 17.4142 14.98 19.5459 14.4889 22.9973C14.1604 25.4074 13.9763 26.0154 13.5205 26.4258C12.8903 26.9934 12.0043 27.1538 11.1569 26.846H11.1526C10.1329 26.4705 9.91459 25.9641 9.49087 22.9962C9.00723 19.5459 8.90023 17.4131 9.18592 16.7363C9.55828 15.838 10.5726 15.3337 11.9936 15.3272L11.9925 15.3283Z" fill="white"/>
</svg>
