<svg width="25" height="25" viewBox="0 0 25 25" fill="none" xmlns="http://www.w3.org/2000/svg">
<path fill-rule="evenodd" clip-rule="evenodd" d="M10.645 0.0726464C9.47025 0.243193 7.98957 0.721631 6.815 1.31026C5.10111 2.16919 3.21358 3.84824 2.14188 5.46722C-0.71396 9.78167 -0.71396 15.1592 2.14188 19.4736C2.91586 20.6429 4.34782 22.0781 5.51439 22.8538C9.81785 25.7154 15.1854 25.7154 19.4889 22.8538C20.6555 22.0781 22.0874 20.6429 22.8614 19.4736C24.9272 16.3527 25.5158 12.7261 24.5426 9.1135C24.4399 8.7322 24.3333 8.3795 24.3057 8.3298C24.2425 8.21574 21.1199 10.7204 21.1509 10.8603C21.1626 10.9131 21.2051 11.31 21.2454 11.7423C21.5234 14.7267 20.1489 17.7522 17.6915 19.565C15.3123 21.32 12.1231 21.7441 9.3483 20.6745C6.5799 19.6072 4.60659 17.2992 3.93033 14.3375C3.77779 13.6693 3.74582 13.3445 3.7467 12.4704C3.74779 11.3401 3.84842 10.6869 4.17395 9.69731C5.14182 6.75563 7.71297 4.45475 10.6769 3.87801L11.3362 3.74972L11.3364 1.87057C11.3367 0.126067 11.3276 -0.00791731 11.2093 0.000329049C11.1391 0.00521848 10.8852 0.0377636 10.645 0.0726464ZM14.8316 4.47949C14.8316 6.86765 14.8189 8.8216 14.8033 8.8216C14.7878 8.8216 14.5638 8.72249 14.3055 8.60135C13.7818 8.35571 12.9989 8.16736 12.5016 8.16736C11.4787 8.16736 10.2332 8.69506 9.48409 9.44598C8.73487 10.1968 8.20838 11.4451 8.20838 12.4704C8.20838 14.0037 9.18913 15.5887 10.5557 16.2639C11.8962 16.9261 13.1073 16.9259 14.4483 16.2635C15.2624 15.8614 15.8848 15.2375 16.2861 14.4215C16.7848 13.4075 16.7948 13.2979 16.7962 8.83984C16.7969 6.56005 16.8251 4.88086 16.8626 4.88086C16.8984 4.88086 17.1852 5.06432 17.4997 5.28858C18.1695 5.76606 19.0056 6.56735 19.4563 7.16364L19.7752 7.58559L20.0211 7.20013C21.055 5.57924 21.8942 4.21743 21.8942 4.16073C21.8942 4.02995 20.4546 2.72301 19.7763 2.23794C18.953 1.64923 17.6536 0.964205 16.7742 0.655368C16.1556 0.438117 15.0736 0.137378 14.9104 0.137378C14.8547 0.137378 14.8316 1.4106 14.8316 4.47949Z" fill="white"/>
</svg>
