<svg width="28" height="28" viewBox="0 0 28 28" fill="none" xmlns="http://www.w3.org/2000/svg">
<path d="M21.5223 27.2172C21.2513 27.2165 20.9813 27.1868 20.7167 27.1286C15.6793 26.0865 11.0384 23.6433 7.32837 20.08C3.69746 16.5089 1.17924 11.9621 0.0783683 6.98971C-0.0514378 6.37001 -0.0195782 5.72732 0.170882 5.12349C0.361342 4.51966 0.703993 3.97501 1.16587 3.54193L4.38809 0.440545C4.55267 0.284902 4.74822 0.165713 4.96198 0.0907587C5.17574 0.0158039 5.4029 -0.0132323 5.62865 0.00554516C5.86271 0.0299639 6.08859 0.105364 6.29038 0.226444C6.49218 0.347523 6.66501 0.511341 6.7967 0.706378L10.8245 6.65943C10.9755 6.89042 11.0484 7.16379 11.0325 7.43932C11.0165 7.71485 10.9126 7.97798 10.7359 8.18999L8.71392 10.6067C9.5192 12.3889 10.6596 13.9997 12.0731 15.3514C13.4774 16.7521 15.1373 17.8705 16.9628 18.6461L19.4681 16.6564C19.6785 16.4901 19.9346 16.3918 20.2022 16.3745C20.4698 16.3572 20.7364 16.4218 20.9664 16.5597L27.0484 20.4908C27.2571 20.6154 27.4349 20.7857 27.5685 20.9888C27.7021 21.1919 27.788 21.4225 27.8197 21.6635C27.8515 21.9045 27.8283 22.1496 27.7519 22.3804C27.6755 22.6112 27.5479 22.8216 27.3786 22.9961L24.237 26.1055C23.8801 26.4607 23.4565 26.7417 22.9906 26.9325C22.5247 27.1233 22.0257 27.22 21.5223 27.2172ZM5.49976 1.60055L2.27753 4.70193C2.0177 4.94404 1.82537 5.24961 1.71943 5.5886C1.6135 5.92758 1.59763 6.28829 1.67337 6.63527C2.697 11.3012 5.05003 15.5707 8.44809 18.928C11.9395 22.2804 16.3068 24.5785 21.047 25.5578C21.4058 25.6328 21.7776 25.6176 22.1291 25.5135C22.4805 25.4095 22.8007 25.2199 23.0609 24.9617L26.2025 21.8522L20.33 18.058L17.6395 20.2008C17.5365 20.2823 17.4151 20.3374 17.2859 20.3613C17.1568 20.3852 17.0237 20.3771 16.8984 20.3378C14.6643 19.5146 12.6398 18.208 10.9695 16.5114C9.24185 14.898 7.90081 12.9154 7.04642 10.7114C7.01028 10.5779 7.00908 10.4375 7.04294 10.3034C7.0768 10.1694 7.14458 10.0464 7.23976 9.9461L9.41476 7.34416L5.49976 1.60055Z" fill="#0C73FE"/>
</svg>
