<svg width="25" height="25" viewBox="0 0 25 25" fill="none" xmlns="http://www.w3.org/2000/svg">
<path fill-rule="evenodd" clip-rule="evenodd" d="M4.82243 0.091063C3.59229 0.258528 2.57739 0.728271 1.72687 1.52389C0.773481 2.41571 0.226344 3.57296 0.0622669 5.04457C0.025351 5.37547 0 6.97582 0 8.97307V12.3433L1.31957 12.3037C6.51928 12.1478 8.38773 11.6768 10.002 10.1149C11.2906 8.86811 11.86 7.37722 12.1179 4.575C12.2162 3.50701 12.3239 1.40286 12.3244 0.540304L12.3248 0L8.8639 0.00601617C6.30894 0.0104554 5.25105 0.0327102 4.82243 0.091063ZM12.6466 0.248248C12.6595 0.384813 12.6852 1.0222 12.7037 1.66472C12.7843 4.45882 12.9948 6.24574 13.3883 7.47664C13.9437 9.21449 14.9803 10.4414 16.5596 11.2305C17.8818 11.8912 19.8678 12.1919 23.6419 12.3031L25 12.3431V8.97301C25 4.7427 24.9475 4.21822 24.413 3.1C23.5945 1.38779 22.1126 0.349708 20.1128 0.0875584C19.5852 0.0183996 18.7289 0 16.034 0H12.6231L12.6466 0.248248ZM0.000992891 16.0248C0.001577 17.8931 0.0271036 19.6583 0.0577695 19.9474C0.208996 21.3741 0.767756 22.5664 1.70187 23.4554C2.5795 24.2908 3.55339 24.7351 4.89135 24.9106C5.43616 24.982 6.25456 25 8.9583 25H12.3431L12.303 23.6419C12.1518 18.5227 11.6525 16.5398 10.1202 14.9735C8.91875 13.7454 7.3972 13.1461 4.81893 12.8855C4.05637 12.8085 3.31723 12.7678 0.569509 12.6519L0 12.6279L0.000992891 16.0248ZM24.6901 12.651C24.6838 12.6555 24.1043 12.6762 23.4022 12.697C18.4557 12.8433 16.4807 13.3617 14.9188 14.9237C13.3909 16.4516 12.8447 18.4834 12.7048 23.16C12.6866 23.7704 12.6591 24.4342 12.6438 24.6349L12.6158 25H16.0212C19.7281 25 20.3633 24.9606 21.2321 24.677C23.3474 23.9865 24.6964 22.2669 24.9422 19.9474C24.9729 19.6583 24.9984 17.8909 24.999 16.0199L25 12.6181L24.8507 12.6305C24.7686 12.6373 24.6963 12.6465 24.6901 12.651Z" fill="white"/>
</svg>
