<svg width="29" height="29" viewBox="0 0 29 29" fill="none" xmlns="http://www.w3.org/2000/svg">
<path d="M14.5 0C11.9716 0.000680222 9.48734 0.662247 7.29353 1.91909C5.09973 3.17594 3.27261 4.98439 1.99338 7.16511C0.714149 9.34584 0.0272464 11.8231 0.000794006 14.3511C-0.0256584 16.8792 0.609259 19.3702 1.84258 21.5772L0.595149 25.9426C0.497586 26.2838 0.493075 26.645 0.582085 26.9886C0.671095 27.3322 0.850385 27.6457 1.10137 27.8967C1.35236 28.1477 1.66591 28.327 2.00953 28.416C2.35314 28.505 2.71431 28.5005 3.05561 28.403L7.4214 27.1556C9.35539 28.2371 11.5115 28.8609 13.7242 28.9793C15.9369 29.0977 18.1472 28.7074 20.1856 27.8386C22.2239 26.9697 24.036 25.6452 25.4827 23.967C26.9295 22.2887 27.9723 20.3013 28.5312 18.1572C29.0901 16.0132 29.1501 13.7696 28.7068 11.5987C28.2634 9.42782 27.3284 7.38741 25.9735 5.63416C24.6187 3.88091 22.88 2.46144 20.8911 1.48476C18.9022 0.508076 16.7158 0.000155185 14.5 0ZM14.5 27.2922C12.2022 27.2938 9.94661 26.6757 7.97069 25.503C7.87076 25.4437 7.75975 25.4053 7.64446 25.3904C7.52918 25.3754 7.41206 25.3841 7.30028 25.416L2.58691 26.7626C2.53818 26.7765 2.48661 26.7772 2.43754 26.7645C2.38847 26.7518 2.34369 26.7262 2.30784 26.6904C2.27199 26.6545 2.24638 26.6098 2.23366 26.5607C2.22094 26.5117 2.22158 26.4601 2.2355 26.4114L3.58202 21.6982C3.61394 21.5865 3.6227 21.4694 3.60773 21.3542C3.59277 21.2389 3.55442 21.128 3.49501 21.0281C2.05395 18.6004 1.45631 15.7643 1.79521 12.9616C2.1341 10.1589 3.3905 7.54698 5.36867 5.53269C7.34684 3.5184 9.93572 2.21486 12.732 1.82514C15.5283 1.43542 18.375 1.9814 20.8286 3.37803C23.2822 4.77465 25.205 6.94351 26.2975 9.54673C27.3899 12.1499 27.5906 15.0414 26.8684 17.7705C26.1461 20.4997 24.5415 22.9134 22.3043 24.6356C20.0672 26.3579 17.3233 27.2919 14.5 27.2922ZM17.9267 21.6064H17.9118C16.529 21.6064 15.1599 21.3338 13.8826 20.8042C12.6054 20.2747 11.445 19.4986 10.468 18.5202C9.49098 17.5419 8.71642 16.3805 8.18863 15.1026C7.66084 13.8247 7.39017 12.4553 7.39211 11.0727C7.3958 10.2458 7.72695 9.45403 8.31309 8.8707C8.89923 8.28738 9.69261 7.96 10.5196 7.96024C10.5419 7.96026 10.5639 7.96619 10.5833 7.97742C10.6026 7.98865 10.6186 8.00479 10.6297 8.0242L12.2917 10.9325C12.3167 10.9764 12.3296 11.026 12.3291 11.0765C12.3286 11.127 12.3146 11.1764 12.2887 11.2197L10.9539 13.4443C10.8831 13.5622 10.842 13.6955 10.8339 13.8328C10.8258 13.9701 10.8511 14.1073 10.9075 14.2328C11.6781 15.9478 13.0511 17.3207 14.7664 18.0912C14.8918 18.1476 15.029 18.1729 15.1664 18.1648C15.3037 18.1567 15.437 18.1155 15.5549 18.0447L17.7794 16.7102C17.8228 16.6844 17.8722 16.6704 17.9227 16.6698C17.9732 16.6693 18.0229 16.6821 18.0668 16.707L20.9754 18.3691C20.9948 18.3802 21.0108 18.3962 21.0221 18.4156C21.0333 18.4349 21.0392 18.4568 21.0392 18.4791C21.0394 19.306 20.7121 20.0993 20.1287 20.6854C19.5454 21.2715 18.7536 21.6026 17.9267 21.6064Z" fill="white"/>
</svg>
