<svg width="26" height="26" viewBox="0 0 26 26" fill="none" xmlns="http://www.w3.org/2000/svg">
<path d="M25.106 24.1129L25.2122 24.0068L25.106 23.9008L17.2714 16.07C18.3773 14.7427 19.0913 13.1324 19.3316 11.4199C19.5784 9.66157 19.3153 7.86936 18.5736 6.25594C17.8319 4.64253 16.6427 3.27564 15.1472 2.31744C13.6516 1.35925 11.9125 0.849962 10.1361 0.85C8.63967 0.849885 7.16539 1.21126 5.83882 1.90334C4.51224 2.59543 3.37266 3.59773 2.51714 4.82488C1.66161 6.05203 1.1155 7.46768 0.925304 8.95125C0.735111 10.4348 0.906478 11.9424 1.42481 13.3455C1.94314 14.7486 2.79307 16.0057 3.90221 17.0097C5.01135 18.0138 6.34685 18.735 7.79494 19.112C9.24304 19.489 10.7608 19.5106 12.2191 19.1749C13.6322 18.8497 14.9489 18.1983 16.064 17.2736L23.9003 25.1061L24.0064 25.2121L24.1124 25.1061L25.106 24.1129ZM4.77623 4.77375C6.19773 3.35295 8.12572 2.55474 10.1361 2.55474C12.1464 2.55474 14.0744 3.35295 15.4959 4.77375C16.9174 6.19454 17.716 8.12154 17.716 10.1308C17.716 12.1401 16.9174 14.0671 15.4959 15.4879C14.0744 16.9087 12.1464 17.7069 10.1361 17.7069C8.12572 17.7069 6.19773 16.9087 4.77623 15.4879C3.35472 14.0671 2.55614 12.1401 2.55614 10.1308C2.55614 8.12154 3.35472 6.19454 4.77623 4.77375Z" fill="#0C73FE" stroke="#0C73FE" stroke-width="0.3"/>
</svg>
