<svg width="29" height="28" viewBox="0 0 29 28" fill="none" xmlns="http://www.w3.org/2000/svg">
<path d="M22.3381 27.5489C22.0671 27.5481 21.7971 27.5184 21.5325 27.4603C16.4951 26.4182 11.8542 23.975 8.14416 20.4117C4.51326 16.8406 1.99503 12.2938 0.894164 7.32141C0.764358 6.7017 0.796218 6.05902 0.986678 5.45519C1.17714 4.85136 1.51979 4.30671 1.98166 3.87363L5.20389 0.772241C5.36847 0.616597 5.56402 0.497409 5.77778 0.422454C5.99154 0.347499 6.2187 0.318463 6.44444 0.337241C6.67851 0.361659 6.90438 0.43706 7.10618 0.558139C7.30798 0.679218 7.4808 0.843037 7.6125 1.03807L11.6403 6.99113C11.7913 7.22212 11.8642 7.49549 11.8483 7.77101C11.8323 8.04654 11.7284 8.30967 11.5517 8.52168L9.52972 10.9384C10.335 12.7206 11.4754 14.3314 12.8889 15.6831C14.2932 17.0838 15.9531 18.2022 17.7786 18.9778L20.2839 16.9881C20.4943 16.8218 20.7503 16.7235 21.018 16.7062C21.2856 16.6889 21.5522 16.7535 21.7822 16.8914L27.8642 20.8225C28.0729 20.9471 28.2507 21.1174 28.3843 21.3205C28.5178 21.5236 28.6037 21.7542 28.6355 21.9952C28.6673 22.2362 28.6441 22.4813 28.5677 22.7121C28.4913 22.9428 28.3637 23.1533 28.1944 23.3278L25.0528 26.4372C24.6959 26.7924 24.2723 27.0734 23.8064 27.2642C23.3405 27.455 22.8415 27.5517 22.3381 27.5489ZM6.31555 1.93224L3.09333 5.03363C2.8335 5.27574 2.64116 5.58131 2.53523 5.92029C2.4293 6.25927 2.41342 6.61999 2.48916 6.96696C3.5128 11.6329 5.86583 15.9024 9.26389 19.2597C12.7553 22.6121 17.1226 24.9102 21.8628 25.8895C22.2216 25.9645 22.5934 25.9493 22.9449 25.8452C23.2963 25.7412 23.6165 25.5516 23.8767 25.2934L27.0183 22.1839L21.1458 18.3897L18.4553 20.5325C18.3523 20.614 18.2309 20.6691 18.1017 20.693C17.9725 20.7169 17.8395 20.7088 17.7142 20.6695C15.4801 19.8463 13.4556 18.5397 11.7853 16.8431C10.0576 15.2297 8.71661 13.2471 7.86222 11.0431C7.82607 10.9096 7.82487 10.7692 7.85873 10.6351C7.89259 10.5011 7.96037 10.378 8.05555 10.2778L10.2306 7.67585L6.31555 1.93224Z" fill="white"/>
</svg>
