<svg width="29" height="26" viewBox="0 0 29 26" fill="none" xmlns="http://www.w3.org/2000/svg">
<path d="M28.3358 0.459595C28.0726 0.234175 27.7523 0.0844705 27.4095 0.0267021C27.0667 -0.0310662 26.7145 0.00530427 26.3911 0.131873L1.21169 9.94256C0.827642 10.0922 0.502773 10.3611 0.285697 10.7091C0.0686213 11.0572 -0.0289885 11.4655 0.00747467 11.8732C0.0439378 12.2808 0.212513 12.6657 0.487974 12.9704C0.763435 13.2751 1.13097 13.4831 1.53558 13.5633L8.1506 14.8753V23.0201C8.15021 23.3949 8.262 23.7614 8.47182 24.0732C8.68164 24.385 8.98005 24.628 9.32924 24.7714C9.67842 24.9149 10.0627 24.9523 10.4333 24.879C10.804 24.8056 11.1443 24.6248 11.4113 24.3595L15.1317 20.6696L20.696 25.5261C21.0421 25.8309 21.4887 25.9995 21.9515 26C22.1527 25.9997 22.3526 25.9683 22.544 25.9068C22.8597 25.8075 23.1436 25.6278 23.3674 25.3857C23.5913 25.1436 23.7472 24.8475 23.8196 24.527L28.9512 2.31809C29.0294 1.98209 29.0134 1.63129 28.9049 1.30367C28.7964 0.976054 28.5997 0.684112 28.3359 0.45946L28.3358 0.459595ZM1.63831 11.7296C1.62947 11.6709 1.64189 11.611 1.67336 11.5606C1.70483 11.5101 1.75332 11.4723 1.81022 11.454L22.8792 3.24483L8.77941 13.3443L1.8566 11.971C1.7973 11.9629 1.74282 11.9342 1.70285 11.89C1.66288 11.8458 1.64001 11.789 1.63831 11.7296ZM10.2536 23.2115C10.2154 23.2494 10.1668 23.2751 10.1139 23.2856C10.0609 23.296 10.0061 23.2906 9.95623 23.2702C9.90637 23.2497 9.86376 23.215 9.83378 23.1705C9.8038 23.126 9.78779 23.0737 9.78778 23.0202V16.0057L13.9002 19.5949L10.2536 23.2115ZM22.2238 24.1644C22.2133 24.2101 22.1909 24.2523 22.159 24.2869C22.127 24.3215 22.0866 24.3472 22.0416 24.3616C21.9966 24.376 21.9486 24.3786 21.9023 24.3691C21.856 24.3595 21.813 24.3382 21.7775 24.3073L10.2799 14.2725L27.3316 2.05856L22.2238 24.1644Z" fill="#0C73FE"/>
</svg>
