<svg width="28" height="28" viewBox="0 0 28 28" fill="none" xmlns="http://www.w3.org/2000/svg">
<path d="M13.9999 19.7776C15.5323 19.7776 17.0019 19.1689 18.0855 18.0853C19.169 17.0018 19.7777 15.5322 19.7777 13.9998C19.7777 12.4675 19.169 10.9979 18.0855 9.91432C17.0019 8.83077 15.5323 8.22205 13.9999 8.22205C12.4676 8.22205 10.998 8.83077 9.91444 9.91432C8.8309 10.9979 8.22217 12.4675 8.22217 13.9998C8.22217 15.5322 8.8309 17.0018 9.91444 18.0853C10.998 19.1689 12.4676 19.7776 13.9999 19.7776V19.7776Z" stroke="#0C73FE" stroke-width="2" stroke-linecap="round" stroke-linejoin="round"/>
<path d="M1 19.7778V8.22222C1 6.30677 1.76091 4.46977 3.11534 3.11534C4.46977 1.76091 6.30677 1 8.22222 1H19.7778C21.6932 1 23.5302 1.76091 24.8847 3.11534C26.2391 4.46977 27 6.30677 27 8.22222V19.7778C27 21.6932 26.2391 23.5302 24.8847 24.8847C23.5302 26.2391 21.6932 27 19.7778 27H8.22222C6.30677 27 4.46977 26.2391 3.11534 24.8847C1.76091 23.5302 1 21.6932 1 19.7778Z" stroke="#0C73FE" stroke-width="2"/>
<path d="M21.9443 6.07028L21.9588 6.05432" stroke="#0C73FE" stroke-width="2" stroke-linecap="round" stroke-linejoin="round"/>
</svg>
