<svg width="32" height="32" viewBox="0 0 32 32" fill="none" xmlns="http://www.w3.org/2000/svg">
<path d="M16 0C7.17733 0 0 7.17733 0 16C0 24.8227 7.17733 32 16 32C24.8227 32 32 24.8227 32 16C32 7.17733 24.8227 0 16 0ZM14.6253 2.75067H14.6667V4H17.3333V2.74933C20.3933 3.04626 23.255 4.39722 25.4289 6.57111C27.6028 8.74499 28.9537 11.6067 29.2507 14.6667H28V17.3333H29.2507C28.9537 20.3933 27.6028 23.255 25.4289 25.4289C23.255 27.6028 20.3933 28.9537 17.3333 29.2507V28H14.6667V29.2507C11.6067 28.9537 8.74499 27.6028 6.57111 25.4289C4.39722 23.255 3.04626 20.3933 2.74933 17.3333H4V14.6667H2.74933C3.04468 11.6131 4.38971 8.75635 6.55523 6.58329C8.72076 4.41023 11.5728 3.05529 14.6253 2.74933V2.75067ZM24.6667 7.33333L13.5413 13.5413L7.33333 24.6667L18.4587 18.4587L24.6667 7.33333ZM16 14C16.5304 14 17.0391 14.2107 17.4142 14.5858C17.7893 14.9609 18 15.4696 18 16C18 16.5304 17.7893 17.0391 17.4142 17.4142C17.0391 17.7893 16.5304 18 16 18C15.4696 18 14.9609 17.7893 14.5858 17.4142C14.2107 17.0391 14 16.5304 14 16C14 15.4696 14.2107 14.9609 14.5858 14.5858C14.9609 14.2107 15.4696 14 16 14Z" fill="white"/>
</svg>
