<svg width="138" height="65" viewBox="0 0 138 65" fill="none" xmlns="http://www.w3.org/2000/svg">
<mask id="mask0" style="mask-type:alpha" maskUnits="userSpaceOnUse" x="110" y="8" width="17" height="16">
<path d="M126.237 15.6759C126.237 19.9151 122.8 23.3517 118.561 23.3517C114.322 23.3517 110.885 19.9151 110.885 15.6759C110.885 11.4366 114.322 8 118.561 8C122.8 8 126.237 11.4366 126.237 15.6759Z" fill="url(#paint0_linear)"/>
</mask>
<g mask="url(#mask0)">
<path d="M126.237 15.6759C126.237 19.9151 122.8 23.3517 118.561 23.3517C114.322 23.3517 110.885 19.9151 110.885 15.6759C110.885 11.4366 114.322 8 118.561 8C122.8 8 126.237 11.4366 126.237 15.6759Z" fill="#0C73FE"/>
<path d="M113.471 16.9686C111.37 16.0798 111.559 13.5212 111.693 12.2015C111.693 8.72713 116.541 5.49519 123.086 8.24234C129.631 10.9895 126.156 20.4429 125.914 17.8574C125.672 15.2718 125.128 14.8633 124.379 14.2214C123.248 13.2519 120.743 12.8479 118.965 15.0294C117.25 17.1341 115.613 17.875 113.471 16.9686Z" fill="#FF4141"/>
</g>
<path d="M18.6209 8V14.1758H6.4565V40.7504H0V8H18.6209Z" fill="white"/>
<path d="M43.4929 40.7504V20.7726L29.457 40.7504H24.5445V8H31.001V28.0245L45.0368 8H49.9494V40.7504H43.4929Z" fill="white"/>
<path d="M83.535 34.5746H87.0439V40.7504H80.5874H62.4812H56.0247V34.5746H59.2061C61.0152 32.0481 61.9197 28.352 61.9197 23.4862V8H83.535V34.5746ZM66.1305 34.5746H77.0785V14.0354H68.3762V23.5798C68.3762 28.3208 67.6276 31.9857 66.1305 34.5746Z" fill="white"/>
<path fill-rule="evenodd" clip-rule="evenodd" d="M99.815 2.10678C99.8787 1.51482 99.9545 0.798655 99.9834 0.515246L100.036 0H100.207H100.377L100.432 0.515246C100.462 0.798655 100.494 1.07345 100.502 1.12589C100.549 1.41906 100.624 3.1768 100.611 3.67551L100.595 4.25955L101.332 4.25946L102.069 4.25937L102.048 3.35483C102.029 2.55718 102.07 1.46733 102.16 0.354947L102.189 0H102.361H102.533L102.565 0.286248C102.582 0.443707 102.657 1.01561 102.731 1.55719C102.805 2.09877 102.884 2.69646 102.907 2.88538C102.93 3.0743 103.002 3.63077 103.066 4.12197C103.175 4.96063 103.323 6.11894 103.482 7.37781C103.551 7.40524 103.592 7.44116 103.597 7.48727C104.307 13.7991 104.777 17.8448 105.097 20.5234C105.115 20.5993 105.133 20.7008 105.148 20.8152C105.176 21.0315 105.188 21.1462 105.181 21.2214C105.188 21.281 105.195 21.3399 105.202 21.398C105.236 21.3894 105.244 21.4174 105.244 21.4757C105.244 21.4888 105.235 21.5092 105.219 21.535C105.227 21.6034 105.235 21.6706 105.243 21.7369C105.252 21.7402 105.258 21.7483 105.262 21.7609C106.43 31.1307 106.74 33.6652 107.258 41.0823C107.604 46.0402 107.865 53.7557 107.931 60.9708L107.961 64.3027H102.029H96.0975L96.0676 63.673C96.0511 63.3267 96.0247 60.5701 96.0088 57.5473C95.9662 49.4175 96.0749 44.1144 96.4051 38.2198C96.4545 37.3382 96.5057 36.4829 96.5188 36.3191C96.5319 36.1554 96.5841 35.4341 96.6349 34.7161C96.9465 30.3071 97.5345 23.9432 97.6496 23.7168C97.6517 23.6944 97.6538 23.672 97.656 23.6496C97.6554 23.6493 97.6548 23.6491 97.6543 23.6488C97.6221 23.6357 97.6077 23.5747 97.62 23.5035C97.6538 23.3082 97.679 23.1134 97.6831 23.0143C97.6843 22.9865 97.6883 22.9671 97.7231 22.9536C97.9123 21.006 98.1154 19.021 98.3186 17.1016L98.3051 17.0978L98.3199 16.9193C98.3281 16.8211 98.3422 16.7333 98.3513 16.7242C98.3523 16.7232 98.3549 16.7226 98.3589 16.7224C98.3616 16.6967 98.3644 16.671 98.3671 16.6453C98.364 16.6425 98.3615 16.6397 98.3599 16.6367C98.3492 16.6179 98.3686 16.3138 98.4029 15.9612C98.7431 12.4693 99.238 7.48655 99.3105 6.82415C99.3229 6.7108 99.4154 5.84518 99.5161 4.90056C99.6167 3.95595 99.7512 2.69875 99.815 2.10678Z" fill="white"/>
<path d="M8.88136 56.2747C9.54244 56.6131 10.0598 57.0783 10.4334 57.6704C10.8071 58.2624 10.9939 58.9461 10.9939 59.7215C10.9939 60.9338 10.5556 61.9418 9.67896 62.7453C8.80232 63.5488 7.73167 63.9506 6.46701 63.9506H0V49.1487H5.99277C7.22868 49.1487 8.27059 49.5434 9.11849 50.3328C9.98076 51.1082 10.4119 52.0809 10.4119 53.2509C10.4119 54.5338 9.90172 55.5417 8.88136 56.2747ZM5.99277 51.4324H2.47902V55.3232H5.99277C6.53887 55.3232 6.99875 55.1399 7.3724 54.7734C7.74605 54.3928 7.93287 53.9276 7.93287 53.3778C7.93287 52.828 7.74605 52.3699 7.3724 52.0033C6.99875 51.6227 6.53887 51.4324 5.99277 51.4324ZM6.46701 61.6669C7.04186 61.6669 7.52329 61.4695 7.91131 61.0748C8.3137 60.666 8.5149 60.1726 8.5149 59.5946C8.5149 59.0166 8.3137 58.5303 7.91131 58.1356C7.52329 57.7267 7.04186 57.5223 6.46701 57.5223H2.47902V61.6669H6.46701Z" fill="white"/>
<path d="M27.8373 64.2255C25.5667 64.2255 23.684 63.4925 22.1894 62.0264C20.6948 60.5462 19.9475 58.7206 19.9475 56.5496C19.9475 54.3787 20.6948 52.5602 22.1894 51.0941C23.684 49.6139 25.5667 48.8738 27.8373 48.8738C29.2026 48.8738 30.46 49.191 31.6097 49.8253C32.7738 50.4597 33.6792 51.3196 34.3259 52.4051L32.1702 53.6315C31.7678 52.8985 31.1786 52.3205 30.4025 51.8976C29.6409 51.4606 28.7858 51.2421 27.8373 51.2421C26.2277 51.2421 24.92 51.7425 23.914 52.7434C22.9224 53.7443 22.4266 55.0131 22.4266 56.5496C22.4266 58.0862 22.9224 59.355 23.914 60.3559C24.92 61.3567 26.2277 61.8572 27.8373 61.8572C28.7858 61.8572 29.6481 61.6457 30.4241 61.2228C31.2001 60.7858 31.7822 60.2008 32.1702 59.4677L34.3259 60.673C33.6935 61.7585 32.7953 62.6255 31.6313 63.274C30.4816 63.9083 29.2169 64.2255 27.8373 64.2255Z" fill="white"/>
<path d="M39.9422 61.6246H46.6248V63.9506H37.4632V49.1487H46.517V51.4747H39.9422V55.3232H45.9781V57.6281H39.9422V61.6246Z" fill="white"/>
<path d="M58.4653 49.1487H60.9659L56.2881 60.1444C55.1384 62.8369 53.2774 64.1057 50.7049 63.9506V61.688C51.5528 61.7726 52.2354 61.6457 52.7528 61.3074C53.2845 60.9691 53.7085 60.4052 54.0247 59.6158L49.0019 49.1487H51.5025L55.1672 56.9514L58.4653 49.1487Z" fill="white"/>
<path d="M60.81 63.9506V61.7092C61.7585 61.8361 62.4626 61.6105 62.9225 61.0325C63.3968 60.4545 63.6339 59.3479 63.6339 57.7127V49.1487H73.744V63.9506H71.265V51.4747H66.1129V57.6704C66.1129 58.9673 65.9692 60.0598 65.6818 60.9479C65.4087 61.836 65.0135 62.5057 64.4962 62.9568C63.9788 63.3938 63.4183 63.6898 62.8147 63.8449C62.2255 63.9859 61.5573 64.0211 60.81 63.9506Z" fill="white"/>
<path d="M80.3105 61.6246H86.9931V63.9506H77.8315V49.1487H86.8853V51.4747H80.3105V55.3232H86.3464V57.6281H80.3105V61.6246Z" fill="white"/>
<path fill-rule="evenodd" clip-rule="evenodd" d="M102.844 64.2255V64.2255H102.958H108.759L108.745 62.7782L108.729 60.9673C108.711 58.9506 108.677 56.894 108.629 54.8717C108.585 52.9726 108.53 51.1038 108.464 49.327C108.408 47.7985 108.345 46.3381 108.276 44.9851C108.235 44.1682 108.191 43.3904 108.146 42.6603C110.164 43.1417 112.32 43.4935 114.659 43.7259C116.144 43.8734 121.788 43.8725 123.327 43.7243C127.786 43.2953 131.865 42.3353 135.32 40.9018C135.663 40.7596 135.963 40.6432 135.987 40.6432C136.097 40.6432 135.008 42.9739 134.447 43.9425C133.535 45.5147 132.759 46.3152 131.659 47.3688L131.164 47.7772V49.327H138L137.96 49.5185C137.532 51.567 135.854 53.5412 133.628 54.6165L133.034 54.8603L118.993 54.9033L133.124 54.8603V58.862V62.7782V63.5019V64.2255H128.007V58.9241C128.007 57.9148 127.188 57.0965 126.179 57.0965C125.17 57.0965 124.352 57.9148 124.352 58.9241V64.2255H121.427V58.9241C121.427 57.9148 120.609 57.0965 119.6 57.0965C118.59 57.0965 117.772 57.9148 117.772 58.9241V64.2255H114.848V58.9241C114.848 57.9148 114.03 57.0965 113.021 57.0965C112.011 57.0965 111.193 57.9148 111.193 58.9241V64.2255H102.844ZM132.029 41.4522C124.699 43.6667 115.734 43.8584 108.106 42.0323C108.094 41.858 108.083 41.6869 108.071 41.519C108.037 41.0327 108.004 40.5679 107.971 40.121C108.203 40.1246 108.434 40.1232 108.66 40.1166L109.578 40.0898L110.115 38.6233C110.501 37.5692 110.676 37.167 110.74 37.1929C114.08 38.5429 119.965 38.8923 124.337 38C125.263 37.8109 126.483 37.4833 127.005 37.283C127.184 37.2148 127.336 37.1679 127.343 37.1788C127.351 37.1898 127.593 37.8493 127.882 38.6442L128.407 40.0898L129.355 40.1167C131.424 40.1753 133.922 39.7759 135.405 39.1493C135.566 39.0813 135.716 39.0256 135.739 39.0256C135.806 39.0256 136.039 39.9027 135.989 39.9681C135.876 40.1185 133.513 41.0036 132.029 41.4522Z" fill="white"/>
<defs>
<linearGradient id="paint0_linear" x1="118.561" y1="8" x2="118.561" y2="23.3517" gradientUnits="userSpaceOnUse">
<stop offset="0.552083" stop-color="#0941D6"/>
<stop offset="1" stop-color="#37BBE4"/>
</linearGradient>
</defs>
</svg>
