<svg width="41" height="41" viewBox="0 0 41 41" fill="none" xmlns="http://www.w3.org/2000/svg">
<path d="M20.5 41C9.16471 41 0 31.8353 0 20.5C0 9.16471 9.16471 0 20.5 0C31.8353 0 41 9.16471 41 20.5C41 31.8353 31.8353 41 20.5 41ZM20.5 2.41176C10.4912 2.41176 2.41176 10.4912 2.41176 20.5C2.41176 30.5088 10.4912 38.5882 20.5 38.5882C30.5088 38.5882 38.5882 30.5088 38.5882 20.5C38.5882 10.4912 30.5088 2.41176 20.5 2.41176Z" fill="#0C73FE"/>
<path d="M14.4707 30.9911V10.0088L32.5589 20.5L14.4707 30.9911ZM16.8825 14.1088V26.7706L27.7354 20.3794L16.8825 14.1088Z" fill="#0C73FE"/>
</svg>
