<svg width="17" height="15" viewBox="0 0 17 15" fill="none" xmlns="http://www.w3.org/2000/svg">
<path d="M17 7.5C17.0002 9.40269 16.3533 11.2343 15.1904 12.6239C14.0274 14.0135 12.4355 14.8572 10.7368 14.984V13.98C12.1959 13.8518 13.558 13.1135 14.5515 11.9124C15.545 10.7113 16.0968 9.13571 16.0968 7.5C16.0968 5.86429 15.545 4.28872 14.5515 3.08762C13.558 1.88652 12.1959 1.14822 10.7368 1.02V0.0159998C12.4355 0.142846 14.0274 0.986503 15.1904 2.37609C16.3533 3.76568 17.0002 5.59731 17 7.5ZM14.3158 7.5C14.316 8.60705 13.951 9.67533 13.2908 10.5005C12.6305 11.3258 11.7212 11.85 10.7368 11.973V10.965C11.4823 10.8446 12.1639 10.4281 12.6569 9.7917C13.1499 9.15534 13.4213 8.34176 13.4213 7.5C13.4213 6.65824 13.1499 5.84466 12.6569 5.2083C12.1639 4.57194 11.4823 4.1554 10.7368 4.035V3.027C11.7212 3.15001 12.6305 3.67424 13.2908 4.49946C13.951 5.32467 14.316 6.39295 14.3158 7.5ZM11.6316 7.5C11.6317 7.81033 11.5457 8.11306 11.3855 8.36649C11.2253 8.61992 10.9986 8.81156 10.7368 8.915V6.085C10.9986 6.18844 11.2253 6.38008 11.3855 6.63351C11.5457 6.88694 11.6317 7.18967 11.6316 7.5ZM0 4H3.57895L7.15789 0H8.94737V15H7.15789L3.57895 11H0V4ZM0.894737 10H3.94937L7.52832 14H8.05263V1H7.52832L3.94937 5H0.894737V10Z" fill="#0C73FE"/>
</svg>
