<svg width="129" height="87" viewBox="0 0 129 87" fill="none" xmlns="http://www.w3.org/2000/svg">
<path d="M126.313 13.9752C125.582 11.3695 124.159 9.01052 122.195 7.14892C120.176 5.23006 117.701 3.85746 115.004 3.16067C104.909 0.500042 64.4678 0.500043 64.4678 0.500043C47.6082 0.308223 30.7527 1.15189 13.9965 3.02629C11.2993 3.77456 8.8288 5.17783 6.80477 7.11129C4.81602 9.02479 3.37552 11.3844 2.62302 13.9698C0.815371 23.7079 -0.0629089 33.5958 2.14612e-05 43.5C-0.0644785 53.3954 0.811646 63.28 2.62302 73.0303C3.3594 75.6049 4.79452 77.9538 6.78865 79.8512C8.78277 81.7485 11.266 83.1192 13.9965 83.8448C24.2251 86.5 64.4678 86.5 64.4678 86.5C81.3488 86.6921 98.2258 85.8485 115.004 83.9738C117.701 83.277 120.176 81.9044 122.195 79.9855C124.184 78.0882 125.598 75.7285 126.307 73.1593C128.162 63.4249 129.064 53.533 129 43.6237C129.14 33.6724 128.239 23.7338 126.313 13.9698V13.9752ZM51.6108 61.904V25.1014L85.2583 43.5054L51.6108 61.904Z" fill="white"/>
</svg>
