<svg width="44" height="40" viewBox="0 0 44 40" fill="none" xmlns="http://www.w3.org/2000/svg">
<path d="M17.5144 8.41146C18.6047 7.95426 19.0619 6.65298 18.5695 5.5979L16.8462 1.97543C16.3539 0.955864 15.1581 0.498308 14.103 0.955864C11.1136 2.22197 8.54621 3.87494 6.50637 5.8796C4.00933 8.23561 2.32119 10.9437 1.40678 13.9331C0.492374 16.958 0 21.0725 0 26.3128V37.1098C0 38.2704 0.949578 39.22 2.11017 39.22H15.9318C17.0924 39.22 18.042 38.2704 18.042 37.1098V23.2882C18.042 22.1272 17.0924 21.178 15.9318 21.178H9.31994C9.39028 17.6255 10.2343 14.7772 11.7818 12.6315C13.0479 10.9089 14.9471 9.50207 17.5144 8.41146Z" fill="#0C73FE"/>
<path d="M42.3443 8.41129C43.4346 7.95409 43.8914 6.65281 43.3994 5.59772L41.6761 2.01078C41.1837 0.990863 39.9879 0.533658 38.9328 0.990863C35.9786 2.25697 33.446 3.90994 31.3714 5.87943C28.874 8.27096 27.151 10.979 26.2363 13.9684C25.3219 16.9223 24.865 21.0375 24.865 26.313V37.11C24.865 38.2706 25.8146 39.2202 26.9752 39.2202H40.7968C41.9574 39.2202 42.907 38.2706 42.907 37.11V23.2884C42.907 22.1274 41.9574 21.1782 40.7968 21.1782H34.1498C34.2201 17.6257 35.0645 14.7773 36.6117 12.6316C37.8778 10.9087 39.7769 9.5019 42.3443 8.41129Z" fill="#0C73FE"/>
</svg>
