<svg width="19" height="15" viewBox="0 0 19 15" fill="none" xmlns="http://www.w3.org/2000/svg">
<path d="M4.45312 9C4.45312 8.5875 4.30778 8.23438 4.01709 7.94063C3.7264 7.64688 3.37695 7.5 2.96875 7.5C2.56055 7.5 2.2111 7.64688 1.92041 7.94063C1.62972 8.23438 1.48438 8.5875 1.48438 9C1.48438 9.4125 1.62972 9.76562 1.92041 10.0594C2.2111 10.3531 2.56055 10.5 2.96875 10.5C3.37695 10.5 3.7264 10.3531 4.01709 10.0594C4.30778 9.76562 4.45312 9.4125 4.45312 9ZM4.78711 6H14.2129L13.3872 2.65313C13.3748 2.60313 13.3315 2.54844 13.2573 2.48906C13.1831 2.42969 13.1182 2.4 13.0625 2.4H5.9375C5.88184 2.4 5.81689 2.42969 5.74268 2.48906C5.66846 2.54844 5.62516 2.60313 5.61279 2.65313L4.78711 6ZM17.5156 9C17.5156 8.5875 17.3703 8.23438 17.0796 7.94063C16.7889 7.64688 16.4395 7.5 16.0312 7.5C15.623 7.5 15.2736 7.64688 14.9829 7.94063C14.6922 8.23438 14.5469 8.5875 14.5469 9C14.5469 9.4125 14.6922 9.76562 14.9829 10.0594C15.2736 10.3531 15.623 10.5 16.0312 10.5C16.4395 10.5 16.7889 10.3531 17.0796 10.0594C17.3703 9.76562 17.5156 9.4125 17.5156 9ZM19 8.1V11.7C19 11.7875 18.9722 11.8594 18.9165 11.9156C18.8608 11.9719 18.7897 12 18.7031 12H17.8125V13.2C17.8125 13.7 17.6393 14.125 17.293 14.475C16.9466 14.825 16.526 15 16.0312 15C15.5365 15 15.1159 14.825 14.7695 14.475C14.4232 14.125 14.25 13.7 14.25 13.2V12H4.75V13.2C4.75 13.7 4.57682 14.125 4.23047 14.475C3.88411 14.825 3.46354 15 2.96875 15C2.47396 15 2.05339 14.825 1.70703 14.475C1.36068 14.125 1.1875 13.7 1.1875 13.2V12H0.296875C0.210286 12 0.13916 11.9719 0.0834961 11.9156C0.027832 11.8594 0 11.7875 0 11.7V8.1C0 7.51875 0.202555 7.02344 0.607666 6.61406C1.01278 6.20469 1.50293 6 2.07812 6H2.33789L3.31201 2.07188C3.45426 1.48438 3.77588 0.992188 4.27686 0.595313C4.77783 0.198438 5.33138 0 5.9375 0H13.0625C13.6686 0 14.2222 0.198438 14.7231 0.595313C15.2241 0.992188 15.5457 1.48438 15.688 2.07188L16.6621 6H16.9219C17.4971 6 17.9872 6.20469 18.3923 6.61406C18.7974 7.02344 19 7.51875 19 8.1Z" fill="#8C21CD"/>
</svg>
