<svg width="13" height="15" viewBox="0 0 13 15" fill="none" xmlns="http://www.w3.org/2000/svg">
<path d="M8.12 7.81915H13V6.38298H9.38L7.38 3.72606C7.08 3.32713 6.54 3.05585 5.92 3.05585C5.74 3.05585 5.58 3.07979 5.42 3.11968L0 4.46809V8.61702H1.8V5.68883L3.91 5.16223L0 15H1.8L4.67 10.125L7 11.8085V15H8.8V10.6835L6.31 8.65692L7.04 6.36702L8.12 7.81915ZM8 2.87234C9 2.87234 9.8 2.23404 9.8 1.43617C9.8 0.638298 9 0 8 0C7 0 6.2 0.638298 6.2 1.43617C6.2 2.23404 7 2.87234 8 2.87234Z" fill="#26CAD4"/>
</svg>
