<svg width="75" height="71" viewBox="0 0 75 71" fill="none" xmlns="http://www.w3.org/2000/svg">
<path d="M61.3978 34.9028C65.8354 32.9278 74.5809 29.1814 74.5809 29.1814C74.5809 29.1814 66.3785 25.8116 62.0767 23.9539C63.9468 22.4294 72.9084 18.0782 72.9084 18.0782L59.2377 19.2077L66.7797 0.982148C66.7797 0.982148 54.905 9.99926 50.2946 11.1534C50.3131 9.03645 50.3563 3.43238 50.3563 3.43238C50.3563 3.43238 46.1533 8.0366 44.0672 9.58574C41.6416 5.98754 37.0066 0.476055 37.0066 0.476055C37.0066 0.476055 32.8652 5.54316 30.5816 9.03645C28.7054 7.51816 23.6753 0.389648 23.6753 0.389648C23.6753 0.389648 24.8356 9.07348 24.7369 11.3386C19.9228 10.1844 11.0291 6.1727 11.0291 6.1727C11.0291 6.1727 14.8804 13.4802 16.3061 17.2265C13.6954 17.208 4.95602 16.7328 1.83305 16.5414C4.35734 18.4547 14.8989 26.0708 14.8989 26.0708L0 28.9593C0 28.9593 10.5971 31.5206 14.8989 33.3783C13.8497 34.23 11.1155 36.4211 8.91836 38.1739H65.3293C63.9036 37.0444 62.589 35.9582 61.3978 34.9028Z" fill="#F15A24"/>
<path d="M27.5889 25.54H47.1352V38.18H27.5889V25.54Z" fill="url(#paint0_linear)"/>
<path d="M71.9335 31.4217C72.0508 31.1131 72.1187 30.786 72.1187 30.4404C72.1187 28.8974 70.8658 27.6445 69.3228 27.6445C68.0452 27.6445 66.9775 28.5086 66.6442 29.6812C66.1046 29.8744 65.6378 30.2294 65.3076 30.6978C64.9773 31.1661 64.7996 31.725 64.7988 32.2981C64.7988 33.8411 66.0517 35.094 67.5947 35.094C67.7737 35.094 67.9465 35.0755 68.1193 35.0384C68.502 35.2359 68.9278 35.3594 69.3907 35.3594C70.9337 35.3594 72.1866 34.1065 72.1866 32.5635C72.1866 32.1623 72.0878 31.7735 71.9335 31.4217Z" fill="#FFEA5C"/>
<path d="M61.5524 1.45701C61.2336 1.57737 60.9417 1.75946 60.6933 1.99284C60.445 2.22622 60.2452 2.50632 60.1053 2.81707C59.9654 3.12782 59.8882 3.46312 59.8781 3.80376C59.868 4.1444 59.9252 4.48368 60.0465 4.80217C60.3489 5.59834 60.997 6.14763 61.7561 6.36982C62.0132 6.99187 62.502 7.48963 63.1193 7.75796C63.7366 8.0263 64.434 8.04419 65.0642 7.80787C65.3831 7.68751 65.675 7.50542 65.9233 7.27204C66.1717 7.03865 66.3715 6.75856 66.5114 6.44781C66.6513 6.13706 66.7285 5.80176 66.7386 5.46112C66.7487 5.12048 66.6914 4.7812 66.5702 4.46271C66.2677 3.66654 65.6197 3.11724 64.8606 2.89506C64.3236 1.60513 62.867 0.957086 61.5524 1.45701Z" fill="#5C5CFF"/>
<path d="M9.77642 27.9162C9.8314 27.6253 9.82509 27.326 9.75788 27.0376C9.69068 26.7493 9.56406 26.4781 9.38612 26.2414C9.20817 26.0047 8.98282 25.8077 8.72445 25.663C8.46608 25.5184 8.18037 25.4292 7.88558 25.4012C7.59079 25.3731 7.2934 25.4069 7.01241 25.5003C6.73141 25.5938 6.47299 25.7448 6.25365 25.9437C6.03431 26.1426 5.85888 26.3851 5.73855 26.6557C5.61823 26.9263 5.55567 27.219 5.55486 27.5151C5.55486 27.836 5.62892 28.1323 5.75236 28.4038C4.51798 28.4655 3.50579 29.4469 3.43173 30.7121C3.39464 31.3618 3.61687 31.9997 4.04965 32.4857C4.48243 32.9717 5.09037 33.2661 5.74001 33.3043C6.57322 33.3537 7.33236 32.9772 7.81376 32.3662C8.14087 32.5637 8.52353 32.6871 8.93087 32.7118C9.58058 32.7489 10.2185 32.5266 10.7045 32.0939C11.1905 31.6611 11.4849 31.0532 11.5231 30.4035C11.591 29.2494 10.8442 28.231 9.77642 27.9162Z" fill="#45F9FF"/>
<path d="M6.96777 10.832C8.67209 10.832 10.0537 9.58857 10.0537 8.05469C10.0537 6.5208 8.67209 5.27734 6.96777 5.27734C5.26346 5.27734 3.88184 6.5208 3.88184 8.05469C3.88184 9.58857 5.26346 10.832 6.96777 10.832Z" fill="#4BFF17"/>
<path d="M67.7061 15.665C69.4104 15.665 70.792 14.4216 70.792 12.8877C70.792 11.3538 69.4104 10.1104 67.7061 10.1104C66.0017 10.1104 64.6201 11.3538 64.6201 12.8877C64.6201 14.4216 66.0017 15.665 67.7061 15.665Z" fill="#FF17C8"/>
<path d="M59.3493 17.0966C58.8185 16.8004 58.6642 16.0968 58.8802 15.529C59.2073 14.6772 59.411 13.77 59.4604 12.8319C59.7443 7.41295 54.9981 2.9692 48.8879 3.03092C46.7339 3.04944 44.7281 3.64194 43.0308 4.62944C41.6175 1.86444 38.5871 -0.0364996 35.0753 0.000531643C31.4339 0.0437348 28.3603 2.16069 27.0889 5.11084C26.1693 4.81459 25.1941 4.65412 24.1881 4.6603C19.2382 4.7035 15.6586 7.61045 16.0165 13.0355C16.0782 13.9551 16.8065 15.6894 16.8065 15.6894C16.8065 15.6894 15.3191 16.0536 14.0971 18.115C13.1034 19.7876 12.9985 22.4847 13.8625 24.2622C15.2142 27.0457 18.9667 28.3541 21.7564 27.0148C22.1514 26.8235 22.6019 26.5828 23.0093 26.7494C23.2129 26.8358 24.0646 29.9588 31.7301 31.5512C36.1492 32.4708 41.3336 29.2305 41.6236 29.2244C41.9569 29.2182 42.2532 29.4219 42.5309 29.607C42.5309 29.607 44.58 31.9585 49.1657 30.8599C53.4921 29.8292 53.9118 26.8914 54.2821 26.7741C54.5784 26.6815 59.6517 28.2739 61.7933 23.4166C62.7314 21.2441 61.1329 18.0903 59.3493 17.0966Z" fill="#D2EDF7"/>
<path d="M15.9668 12.4434C16.0038 13.2149 16.1828 15.2825 17.1271 15.8627C17.7628 16.2515 18.3306 16.4366 18.8305 16.4984C19.7995 16.6156 20.3858 15.4183 19.7316 14.6962C19.0157 13.9123 18.2442 12.5669 17.948 10.3141C17.5221 7.13563 20.0217 5.53711 20.0217 5.53711C20.0217 5.53711 15.7261 7.27758 15.9668 12.4434Z" fill="#92CBEB"/>
<path d="M61.7687 23.4285C62.3859 22.0337 62.1761 20.0649 61.0528 18.8058C61.0528 18.8058 61.7379 20.5895 60.8738 22.3608C59.9974 24.1568 58.1396 25.8356 56.2017 25.3727C54.992 25.0826 56.177 23.0953 54.4736 20.1698C54.56 22.9286 54.5044 29.1807 46.4069 29.6992C44.9257 29.7917 41.3768 28.5142 41.167 26.3664C40.6979 21.6881 45.1417 22.3361 45.7774 22.4349C47.3018 22.6632 48.9682 22.0028 49.2213 20.7993C49.4496 19.7069 48.9189 19.2749 48.4189 18.8428C46.9871 17.6208 44.7343 17.8492 43.142 18.8614C40.7226 20.4043 39.6055 24.4901 37.6861 26.4713C35.4457 28.7796 31.8166 29.335 28.7245 28.4463C23.429 26.9218 21.775 20.1698 21.775 20.1698C21.0837 21.9349 21.6947 24.2556 22.1206 25.2924C16.8436 26.3849 14.2082 23.6384 13.3936 22.836C13.48 23.3298 13.6219 23.8174 13.8441 24.2741C15.1957 27.0576 18.9482 28.366 21.7379 27.0267C22.1329 26.8354 22.5835 26.5947 22.9908 26.7614C23.1945 26.8478 24.0462 29.9707 31.7117 31.5631C36.1307 32.4827 41.3151 29.2424 41.6052 29.2363C41.9385 29.2301 42.2347 29.4338 42.5125 29.6189C42.5125 29.6189 44.5615 31.9704 49.1472 30.8718C53.4737 29.8411 53.8934 26.9033 54.2637 26.786C54.56 26.6873 59.6332 28.2796 61.7687 23.4285Z" fill="#78C0E8"/>
<path d="M39.1791 0.908203C39.1791 0.908203 40 2.08086 40.1666 2.69188C40.8147 5.08039 39.5926 6.66656 39.2408 7.31461C39.0557 7.66023 38.8891 8.06141 39.0187 8.42555C39.1606 8.82055 39.5926 9.03039 40 9.09211C41.0986 9.27109 42.2404 8.66625 42.8514 7.74047C43.4501 6.81469 44.5425 3.09922 39.1791 0.908203Z" fill="#92CBEB"/>
<path d="M58.8796 15.5284C59.2067 14.6766 59.4104 13.7694 59.4598 12.8312C59.5709 10.7452 58.929 8.81336 57.7563 7.21484C58.3427 8.28258 58.4908 9.60953 58.2439 10.8192C57.9045 12.4671 56.8491 13.9052 55.627 15.0593C54.1396 16.4603 55.195 17.1084 56.0529 17.1084C58.1205 17.1022 58.7623 15.8308 58.8796 15.5284Z" fill="#92CBEB"/>
<path d="M41.3022 38.1738V34.0263C41.3022 33.2487 40.611 32.6191 39.7593 32.6191C38.9076 32.6191 38.2163 33.2487 38.2163 34.0263V38.1738H41.3022Z" fill="#039BE5"/>
<path d="M35.2041 38.1735V31.8535C35.2041 31.3412 34.7906 30.9277 34.2783 30.9277C33.7661 30.9277 33.3525 31.3412 33.3525 31.8535V38.1735H35.2041Z" fill="#039BE5"/>
<path d="M37.1179 70.8848C46.6226 70.8848 55.5101 67.6754 62.0523 61.9355C68.7365 56.0044 72.4643 47.8266 72.8716 38.1738H1.36426C2.2777 60.6271 20.3366 70.8848 37.1179 70.8848Z" fill="url(#paint1_radial)"/>
<path d="M6.14746 54.874C6.24004 55.0283 6.35113 55.1703 6.44988 55.3246C6.38816 55.2196 6.32027 55.1147 6.25856 55.016C6.22152 54.9666 6.17832 54.9234 6.14746 54.874Z" fill="#EB8F00"/>
<path d="M71.5138 38.1732C70.73 47.0175 67.0701 54.5348 60.8118 60.0833C54.2696 65.8232 45.3821 69.0325 35.8774 69.0325C24.7866 69.0325 13.1403 64.5394 6.25244 55.0162C6.31416 55.1211 6.37588 55.2261 6.44377 55.3248C6.65979 55.6643 6.8758 55.9914 7.10416 56.3185C7.2708 56.5592 7.43127 56.7999 7.60408 57.0344C7.96822 57.5282 8.34471 58.0096 8.73353 58.4786C8.91869 58.7008 9.11002 58.9107 9.29518 59.1267C9.56057 59.4291 9.83213 59.7254 10.1037 60.0154C10.6781 60.6262 11.2794 61.211 11.9059 61.7682C12.1096 61.9534 12.3194 62.1262 12.5231 62.3052C12.8749 62.6014 13.2267 62.8915 13.5846 63.1754C13.7945 63.3421 14.0105 63.5025 14.2265 63.663C14.5906 63.9346 14.9671 64.1938 15.3436 64.453C15.5164 64.5703 15.6892 64.6937 15.8621 64.811C16.3867 65.1504 16.9174 65.4775 17.4606 65.7861C17.6642 65.9034 17.8741 66.0145 18.0778 66.1256C18.4789 66.3478 18.8863 66.5576 19.2936 66.7675C19.4911 66.8662 19.6948 66.9711 19.8923 67.0637C20.4663 67.3414 21.0464 67.6007 21.6389 67.8475C21.7932 67.9093 21.9475 67.9648 22.0956 68.0265C22.5709 68.2179 23.0523 68.3968 23.5399 68.5697C23.7435 68.6437 23.9534 68.7116 24.1571 68.7857C24.694 68.9647 25.2371 69.1375 25.7803 69.2918C25.879 69.3226 25.9778 69.3535 26.0703 69.3782C26.706 69.5572 27.3417 69.7114 27.9836 69.8596C28.1749 69.9028 28.3601 69.9398 28.5514 69.983C29.0637 70.0941 29.576 70.1867 30.0882 70.2793C30.2549 70.3101 30.4153 70.341 30.5758 70.3657C31.23 70.4706 31.8842 70.557 32.5385 70.6311C32.6804 70.6496 32.8224 70.6557 32.9581 70.6743C33.4951 70.7298 34.032 70.773 34.569 70.8039C34.7542 70.8162 34.9393 70.8286 35.1183 70.8347C35.7787 70.8656 36.4453 70.8903 37.1056 70.8903C46.6103 70.8903 55.4978 67.6809 62.04 61.9411C62.472 61.5584 62.8917 61.1634 63.2929 60.7684C63.4287 60.6326 63.5645 60.4907 63.7002 60.3487C63.9595 60.0833 64.2249 59.8118 64.4779 59.5402C64.6384 59.3674 64.7865 59.1884 64.9408 59.0094C65.1568 58.7625 65.3728 58.5157 65.5827 58.2564C65.7431 58.0589 65.8974 57.8553 66.0517 57.6578C66.2431 57.4171 66.4282 57.1764 66.6134 56.9233C66.7677 56.7073 66.922 56.4851 67.0701 56.2691C67.2367 56.0284 67.4034 55.7877 67.5638 55.5408C67.712 55.3063 67.8601 55.0718 68.002 54.8372C68.1502 54.5965 68.2983 54.3558 68.4403 54.1089C68.5822 53.8621 68.718 53.609 68.8538 53.3622C68.9834 53.1214 69.113 52.8807 69.2364 52.6339C69.3722 52.3747 69.4956 52.1093 69.6252 51.8377C69.7363 51.597 69.8474 51.3563 69.9585 51.1094C70.082 50.8317 70.1992 50.5539 70.3165 50.27C70.4153 50.0293 70.5078 49.7886 70.6004 49.5479C70.7115 49.2579 70.8226 48.9616 70.9213 48.6654C71.0016 48.4308 71.0818 48.1901 71.162 47.9494C71.2608 47.6408 71.3595 47.3322 71.4521 47.0175C71.52 46.7829 71.5817 46.5484 71.6496 46.3077C71.736 45.9806 71.8224 45.6535 71.9027 45.3264C71.9582 45.098 72.0076 44.8696 72.057 44.6351C72.131 44.2895 72.2051 43.9439 72.273 43.5921C72.3162 43.3761 72.347 43.1539 72.3841 42.9378C72.4458 42.5675 72.5075 42.1972 72.5569 41.8207C72.5816 41.6232 72.6063 41.4257 72.6248 41.2221C72.6742 40.8209 72.7235 40.4197 72.7606 40.0124C72.7729 39.8581 72.7791 39.7038 72.7914 39.5495C72.8284 39.0928 72.8531 38.6299 72.8778 38.167H71.5138V38.1732Z" fill="#EB8F00"/>
<path d="M71.5138 38.1732C70.73 47.0175 67.0701 54.5348 60.8118 60.0833C54.2696 65.8232 45.3821 69.0325 35.8774 69.0325C24.7866 69.0325 13.1403 64.5394 6.25244 55.0162C6.31416 55.1211 6.37588 55.2261 6.44377 55.3248C6.65979 55.6643 6.8758 55.9914 7.10416 56.3185C7.2708 56.5592 7.43127 56.7999 7.60408 57.0344C7.96822 57.5282 8.34471 58.0096 8.73353 58.4786C8.91869 58.7008 9.11002 58.9107 9.29518 59.1267C9.56057 59.4291 9.83213 59.7254 10.1037 60.0154C10.6781 60.6262 11.2794 61.211 11.9059 61.7682C12.1096 61.9534 12.3194 62.1262 12.5231 62.3052C12.8749 62.6014 13.2267 62.8915 13.5846 63.1754C13.7945 63.3421 14.0105 63.5025 14.2265 63.663C14.5906 63.9346 14.9671 64.1938 15.3436 64.453C15.5164 64.5703 15.6892 64.6937 15.8621 64.811C16.3867 65.1504 16.9174 65.4775 17.4606 65.7861C17.6642 65.9034 17.8741 66.0145 18.0778 66.1256C18.4789 66.3478 18.8863 66.5576 19.2936 66.7675C19.4911 66.8662 19.6948 66.9711 19.8923 67.0637C20.4663 67.3414 21.0464 67.6007 21.6389 67.8475C21.7932 67.9093 21.9475 67.9648 22.0956 68.0265C22.5709 68.2179 23.0523 68.3968 23.5399 68.5697C23.7435 68.6437 23.9534 68.7116 24.1571 68.7857C24.694 68.9647 25.2371 69.1375 25.7803 69.2918C25.879 69.3226 25.9778 69.3535 26.0703 69.3782C26.706 69.5572 27.3417 69.7114 27.9836 69.8596C28.1749 69.9028 28.3601 69.9398 28.5514 69.983C29.0637 70.0941 29.576 70.1867 30.0882 70.2793C30.2549 70.3101 30.4153 70.341 30.5758 70.3657C31.23 70.4706 31.8842 70.557 32.5385 70.6311C32.6804 70.6496 32.8224 70.6557 32.9581 70.6743C33.4951 70.7298 34.032 70.773 34.569 70.8039C34.7542 70.8162 34.9393 70.8286 35.1183 70.8347C35.7787 70.8656 36.4453 70.8903 37.1056 70.8903C46.6103 70.8903 55.4978 67.6809 62.04 61.9411C62.472 61.5584 62.8917 61.1634 63.2929 60.7684C63.4287 60.6326 63.5645 60.4907 63.7002 60.3487C63.9595 60.0833 64.2249 59.8118 64.4779 59.5402C64.6384 59.3674 64.7865 59.1884 64.9408 59.0094C65.1568 58.7625 65.3728 58.5157 65.5827 58.2564C65.7431 58.0589 65.8974 57.8553 66.0517 57.6578C66.2431 57.4171 66.4282 57.1764 66.6134 56.9233C66.7677 56.7073 66.922 56.4851 67.0701 56.2691C67.2367 56.0284 67.4034 55.7877 67.5638 55.5408C67.712 55.3063 67.8601 55.0718 68.002 54.8372C68.1502 54.5965 68.2983 54.3558 68.4403 54.1089C68.5822 53.8621 68.718 53.609 68.8538 53.3622C68.9834 53.1214 69.113 52.8807 69.2364 52.6339C69.3722 52.3747 69.4956 52.1093 69.6252 51.8377C69.7363 51.597 69.8474 51.3563 69.9585 51.1094C70.082 50.8317 70.1992 50.5539 70.3165 50.27C70.4153 50.0293 70.5078 49.7886 70.6004 49.5479C70.7115 49.2579 70.8226 48.9616 70.9213 48.6654C71.0016 48.4308 71.0818 48.1901 71.162 47.9494C71.2608 47.6408 71.3595 47.3322 71.4521 47.0175C71.52 46.7829 71.5817 46.5484 71.6496 46.3077C71.736 45.9806 71.8224 45.6535 71.9027 45.3264C71.9582 45.098 72.0076 44.8696 72.057 44.6351C72.131 44.2895 72.2051 43.9439 72.273 43.5921C72.3162 43.3761 72.347 43.1539 72.3841 42.9378C72.4458 42.5675 72.5075 42.1972 72.5569 41.8207C72.5816 41.6232 72.6063 41.4257 72.6248 41.2221C72.6742 40.8209 72.7235 40.4197 72.7606 40.0124C72.7729 39.8581 72.7791 39.7038 72.7914 39.5495C72.8284 39.0928 72.8531 38.6299 72.8778 38.167H71.5138V38.1732Z" fill="#EB8F00"/>
<path d="M72.7852 39.5554C72.8222 39.0986 72.853 38.6357 72.8716 38.1729H72.8654C72.8469 38.6357 72.816 39.0986 72.7852 39.5554Z" fill="#EB8F00"/>
<path d="M72.7852 39.5554C72.8222 39.0986 72.853 38.6357 72.8716 38.1729H72.8654C72.8469 38.6357 72.816 39.0986 72.7852 39.5554Z" fill="url(#paint2_radial)"/>
<path d="M45.8882 62.3302C45.8882 65.7864 42.0678 67.817 37.3586 67.817C32.6495 67.817 28.8291 65.7864 28.8291 62.3302C28.8291 58.8739 32.6495 55.1152 37.3586 55.1152C42.0678 55.1152 45.8882 58.8739 45.8882 62.3302Z" fill="#422B0D"/>
<path d="M23.4661 53.5045C28.7529 53.5045 33.0387 49.2187 33.0387 43.9319C33.0387 38.6452 28.7529 34.3594 23.4661 34.3594C18.1793 34.3594 13.8936 38.6452 13.8936 43.9319C13.8936 49.2187 18.1793 53.5045 23.4661 53.5045Z" fill="white"/>
<path d="M23.4662 48.1106C25.7398 48.1106 27.5829 46.2399 27.5829 43.9323C27.5829 41.6246 25.7398 39.7539 23.4662 39.7539C21.1927 39.7539 19.3496 41.6246 19.3496 43.9323C19.3496 46.2399 21.1927 48.1106 23.4662 48.1106Z" fill="#422B0D"/>
<path d="M51.2396 53.5045C56.5264 53.5045 60.8122 49.2187 60.8122 43.9319C60.8122 38.6452 56.5264 34.3594 51.2396 34.3594C45.9528 34.3594 41.667 38.6452 41.667 43.9319C41.667 49.2187 45.9528 53.5045 51.2396 53.5045Z" fill="white"/>
<path d="M51.2519 48.1595C53.5255 48.1595 55.3685 46.2887 55.3685 43.9811C55.3685 41.6734 53.5255 39.8027 51.2519 39.8027C48.9783 39.8027 47.1353 41.6734 47.1353 43.9811C47.1353 46.2887 48.9783 48.1595 51.2519 48.1595Z" fill="#422B0D"/>
<defs>
<linearGradient id="paint0_linear" x1="37.3633" y1="35.0299" x2="37.3633" y2="39.4292" gradientUnits="userSpaceOnUse">
<stop stop-color="#78C0E8"/>
<stop offset="1" stop-color="#31A0D6"/>
</linearGradient>
<radialGradient id="paint1_radial" cx="0" cy="0" r="1" gradientUnits="userSpaceOnUse" gradientTransform="translate(37.1179 36.384) scale(35.1532)">
<stop offset="0.5" stop-color="#FDE030"/>
<stop offset="0.919" stop-color="#F7C02B"/>
<stop offset="1" stop-color="#F4A223"/>
</radialGradient>
<radialGradient id="paint2_radial" cx="0" cy="0" r="1" gradientUnits="userSpaceOnUse" gradientTransform="translate(37.1193 36.383) scale(35.1518 35.1531)">
<stop offset="0.5" stop-color="#FDE030"/>
<stop offset="0.919" stop-color="#F7C02B"/>
<stop offset="1" stop-color="#F4A223"/>
</radialGradient>
</defs>
</svg>
