<svg width="72" height="71" viewBox="0 0 72 71" fill="none" xmlns="http://www.w3.org/2000/svg">
<path d="M35.7969 69.0016C18.5773 69.0016 0 58.2008 0 34.5008C0 10.8008 18.5773 0 35.7969 0C45.3633 0 54.1891 3.14766 60.7312 8.8875C67.8289 15.1828 71.5937 24.0703 71.5937 34.5008C71.5937 44.9313 67.8289 53.757 60.7312 60.0523C54.1891 65.7922 45.3016 69.0016 35.7969 69.0016Z" fill="url(#paint0_radial)"/>
<path d="M65.3537 13.9912C68.6434 19.299 70.3591 25.619 70.3591 32.6488C70.3591 43.0793 66.5943 51.905 59.4966 58.2004C52.9545 63.9402 44.067 67.1496 34.5623 67.1496C23.4159 67.1496 11.7016 62.6132 4.82617 52.9913C11.4671 63.8908 23.9528 69.0011 35.7966 69.0011C45.3013 69.0011 54.1888 65.7918 60.731 60.0519C67.8287 53.7566 71.5935 44.9308 71.5935 34.5004C71.5935 26.6374 69.4519 19.6508 65.3537 13.9912Z" fill="#EB8F00"/>
<path d="M42.4003 10.8007C42.9558 10.3069 43.5112 9.8749 44.1284 9.44287C44.7456 9.01084 45.4245 8.70224 46.0417 8.33193C47.3995 7.71474 48.8808 7.09755 50.6706 7.03584C51.1027 6.97412 51.5347 7.09755 52.0284 7.09755C52.4605 7.09755 52.9542 7.28271 53.3862 7.40615C53.5097 7.46787 53.6331 7.46787 53.6948 7.52959L54.0034 7.71474L54.6206 8.02334C54.9909 8.27021 55.3612 8.5788 55.7316 8.8874C56.4105 9.50459 56.8425 10.3069 57.2128 11.0476C57.398 11.4179 57.5214 11.7882 57.6448 12.1585C57.7683 12.5288 57.83 12.8991 57.8917 13.146L57.9534 13.3312C58.0769 14.0718 57.5831 14.8124 56.8425 14.9358C56.2253 15.0593 55.6698 14.7507 55.3612 14.2569C55.1761 13.8866 54.9909 13.578 54.8675 13.3312C54.7441 13.0843 54.5589 12.8374 54.4355 12.5905C54.1269 12.1585 53.7566 11.7882 53.3862 11.4796C53.3245 11.4179 53.2011 11.3561 53.0777 11.2944C52.9542 11.2327 52.8925 11.171 52.8308 11.1093C52.7073 11.0476 52.6456 11.0476 52.5222 10.9858L52.3987 10.9241H52.2136C51.7816 10.8007 51.3495 10.739 50.8558 10.8007C49.8683 10.8007 48.6956 11.171 47.523 11.603C46.9675 11.8499 46.3503 12.0968 45.7948 12.3436C45.2394 12.6522 44.6222 12.8991 44.005 13.146L43.8816 13.2077C43.1409 13.5163 42.3386 13.146 42.0917 12.4671C41.7831 11.8499 41.9683 11.171 42.4003 10.8007Z" fill="#422B0D"/>
<path d="M24.687 19.4418C24.1932 19.5652 23.8846 19.627 23.4526 19.627C23.0823 19.627 22.6503 19.6887 22.28 19.627C21.4776 19.627 20.6753 19.5035 19.9346 19.2566C18.7003 18.948 17.4659 18.7629 16.4167 18.7629C15.9229 18.7629 15.4292 18.8246 15.0589 18.948C14.6886 19.0715 14.38 19.2566 14.0714 19.5652C13.4542 20.1824 12.837 21.2934 12.2198 22.4043C11.8495 23.0832 10.9854 23.3301 10.3065 22.9598C9.75105 22.6512 9.50418 22.034 9.5659 21.4785C9.68934 20.7996 9.87449 20.059 10.1214 19.3184C10.43 18.5777 10.7386 17.8371 11.3557 17.0965C11.9729 16.3559 12.7753 15.7387 13.7011 15.4301C14.6268 15.1215 15.4909 14.998 16.355 14.998C18.0214 15.0598 19.4409 15.4918 20.7987 15.9855C21.3542 16.1707 21.9096 16.3559 22.4651 16.4793C22.7737 16.541 23.0206 16.6027 23.3292 16.6027C23.5761 16.6027 23.9464 16.6645 24.1315 16.6645H24.3784C25.119 16.6645 25.7362 17.3434 25.6745 18.084C25.7362 18.8246 25.3042 19.3184 24.687 19.4418Z" fill="#422B0D"/>
<path d="M23.7001 52.0287C24.811 50.7943 27.7735 49.3748 31.9087 49.4365C37.4017 49.56 40.3642 52.0287 40.3642 52.0287C42.154 53.51 41.3517 55.7935 39.4384 55.6084C36.3524 55.2381 36.5376 54.6826 30.9829 54.5592C26.9712 54.4975 25.0579 55.1146 24.8728 55.1146C23.7618 55.1764 23.3298 54.7443 23.1446 54.0037C22.9595 53.3865 23.1446 52.5842 23.7001 52.0287Z" fill="#422B0D"/>
<path d="M47.3377 22.7129C50.0533 22.7129 52.5221 24.9965 52.5221 28.823C52.5221 32.6496 50.0533 34.9332 47.3377 34.9332C44.6221 34.9332 42.1533 32.6496 42.1533 28.823C42.1533 24.9965 44.6221 22.7129 47.3377 22.7129Z" fill="#422B0D"/>
<path d="M19.5024 23.7617C16.9103 23.7617 14.5649 25.9219 14.5649 29.5633C14.5649 33.2047 16.9103 35.3648 19.5024 35.3648C22.0946 35.3648 24.4399 33.2047 24.4399 29.5633C24.4399 25.9219 22.0946 23.7617 19.5024 23.7617Z" fill="#422B0D"/>
<path d="M46.7642 25.5208C46.1285 25.0765 45.1719 25.2184 44.5547 26.1072C43.9375 27.0021 44.1412 27.9402 44.7769 28.3846C45.4126 28.829 46.3692 28.687 46.9864 27.7983C47.6098 26.9033 47.3999 25.959 46.7642 25.5208Z" fill="#896024"/>
<path d="M62.2741 26.4775H58.8179V32.0322H62.2741C63.9405 32.0322 65.6069 30.983 65.6069 29.3783V29.1314C65.6069 27.465 63.9405 26.4775 62.2741 26.4775ZM61.9655 31.2299C60.7929 31.2299 59.8671 30.3041 59.8671 29.1932C59.8671 28.0822 60.7929 27.1564 61.9655 27.1564C63.1382 27.1564 64.064 28.0822 64.064 29.1932C64.064 30.3041 63.1382 31.2299 61.9655 31.2299Z" fill="#404040"/>
<path d="M62.027 39.3762C61.8419 39.3762 61.6567 39.2527 61.6567 39.0676V36.2285C61.6567 36.0434 61.7802 35.9199 61.9653 35.9199H62.027C62.2122 35.9199 62.3356 36.0434 62.3356 36.2285V39.0676C62.3356 39.191 62.2122 39.3762 62.027 39.3762Z" fill="#404040"/>
<path d="M62.027 44.0666C61.8419 44.0666 61.6567 43.9432 61.6567 43.758V40.9189C61.6567 40.7338 61.7802 40.6104 61.9653 40.6104H62.027C62.2122 40.6104 62.3356 40.7338 62.3356 40.9189V43.758C62.3356 43.9432 62.2122 44.0666 62.027 44.0666Z" fill="#404040"/>
<path d="M62.027 48.8195C61.8419 48.8195 61.6567 48.6961 61.6567 48.5109V45.6719C61.6567 45.4867 61.7802 45.3633 61.9653 45.3633H62.027C62.2122 45.3633 62.3356 45.4867 62.3356 45.6719V48.5109C62.3356 48.6961 62.2122 48.8195 62.027 48.8195Z" fill="#404040"/>
<path d="M62.027 53.5715C61.8419 53.5715 61.6567 53.4481 61.6567 53.2629V50.4238C61.6567 50.2387 61.7802 50.1152 61.9653 50.1152H62.027C62.2122 50.1152 62.3356 50.2387 62.3356 50.4238V53.2629C62.3356 53.4481 62.2122 53.5715 62.027 53.5715Z" fill="#404040"/>
<path d="M62.027 58.3244C61.8419 58.3244 61.6567 58.201 61.6567 58.0158V55.1768C61.6567 54.9916 61.7802 54.8682 61.9653 54.8682H62.027C62.2122 54.8682 62.3356 54.9916 62.3356 55.1768V58.0158C62.3356 58.201 62.2122 58.3244 62.027 58.3244Z" fill="#404040"/>
<path d="M62.027 63.0764C61.8419 63.0764 61.6567 62.9529 61.6567 62.7678V59.9287C61.6567 59.7436 61.7802 59.6201 61.9653 59.6201H62.027C62.2122 59.6201 62.3356 59.7436 62.3356 59.9287V62.7678C62.3356 62.9529 62.2122 63.0764 62.027 63.0764Z" fill="#404040"/>
<path d="M62.027 67.8283C61.8419 67.8283 61.6567 67.7049 61.6567 67.5197V64.6807C61.6567 64.4955 61.7802 64.3721 61.9653 64.3721H62.027C62.2122 64.3721 62.3356 64.4955 62.3356 64.6807V67.5197C62.3356 67.7049 62.2122 67.8283 62.027 67.8283Z" fill="#404040"/>
<path d="M62.027 34.3772C61.8419 34.3772 61.6567 34.2537 61.6567 34.0686V31.2295C61.6567 31.0443 61.7802 30.9209 61.9653 30.9209H62.027C62.2122 30.9209 62.3356 31.0443 62.3356 31.2295V34.0686C62.3356 34.192 62.2122 34.3772 62.027 34.3772Z" fill="#404040"/>
<path d="M62.0271 36.8461C62.9133 36.8461 63.6317 36.1277 63.6317 35.2414C63.6317 34.3552 62.9133 33.6367 62.0271 33.6367C61.1408 33.6367 60.4224 34.3552 60.4224 35.2414C60.4224 36.1277 61.1408 36.8461 62.0271 36.8461Z" stroke="#404040" stroke-miterlimit="10"/>
<path d="M62.0271 41.5981C62.9133 41.5981 63.6317 40.8796 63.6317 39.9934C63.6317 39.1071 62.9133 38.3887 62.0271 38.3887C61.1408 38.3887 60.4224 39.1071 60.4224 39.9934C60.4224 40.8796 61.1408 41.5981 62.0271 41.5981Z" stroke="#404040" stroke-miterlimit="10"/>
<path d="M62.0271 46.2885C62.9133 46.2885 63.6317 45.57 63.6317 44.6838C63.6317 43.7975 62.9133 43.0791 62.0271 43.0791C61.1408 43.0791 60.4224 43.7975 60.4224 44.6838C60.4224 45.57 61.1408 46.2885 62.0271 46.2885Z" stroke="#404040" stroke-miterlimit="10"/>
<path d="M62.0271 51.0414C62.9133 51.0414 63.6317 50.323 63.6317 49.4367C63.6317 48.5505 62.9133 47.832 62.0271 47.832C61.1408 47.832 60.4224 48.5505 60.4224 49.4367C60.4224 50.323 61.1408 51.0414 62.0271 51.0414Z" stroke="#404040" stroke-miterlimit="10"/>
<path d="M62.0271 55.7318C62.9133 55.7318 63.6317 55.0134 63.6317 54.1271C63.6317 53.2409 62.9133 52.5225 62.0271 52.5225C61.1408 52.5225 60.4224 53.2409 60.4224 54.1271C60.4224 55.0134 61.1408 55.7318 62.0271 55.7318Z" stroke="#404040" stroke-miterlimit="10"/>
<path d="M62.0271 60.4838C62.9133 60.4838 63.6317 59.7653 63.6317 58.8791C63.6317 57.9929 62.9133 57.2744 62.0271 57.2744C61.1408 57.2744 60.4224 57.9929 60.4224 58.8791C60.4224 59.7653 61.1408 60.4838 62.0271 60.4838Z" stroke="#404040" stroke-miterlimit="10"/>
<path d="M62.0271 65.1752C62.9133 65.1752 63.6317 64.4567 63.6317 63.5705C63.6317 62.6843 62.9133 61.9658 62.0271 61.9658C61.1408 61.9658 60.4224 62.6843 60.4224 63.5705C60.4224 64.4567 61.1408 65.1752 62.0271 65.1752Z" stroke="#404040" stroke-miterlimit="10"/>
<path d="M62.0271 69.9271C62.9133 69.9271 63.6317 69.2087 63.6317 68.3225C63.6317 67.4362 62.9133 66.7178 62.0271 66.7178C61.1408 66.7178 60.4224 67.4362 60.4224 68.3225C60.4224 69.2087 61.1408 69.9271 62.0271 69.9271Z" stroke="#404040" stroke-miterlimit="10"/>
<path d="M45.6716 41.5365C52.6934 41.5365 58.3856 35.8442 58.3856 28.8225C58.3856 21.8007 52.6934 16.1084 45.6716 16.1084C38.6498 16.1084 32.9575 21.8007 32.9575 28.8225C32.9575 35.8442 38.6498 41.5365 45.6716 41.5365Z" fill="#CCCCCC" fill-opacity="0.5" stroke="#404040" stroke-width="3.5" stroke-miterlimit="10"/>
<path d="M55.0529 28.0816C54.806 25.7363 53.7568 23.5762 52.0287 22.0949C50.3005 20.6137 48.0787 19.8113 45.8568 19.8113C43.5732 19.8113 41.3513 20.552 39.6232 21.9715C37.8951 23.391 36.7841 25.5512 36.599 27.8965C36.599 28.0816 36.4138 28.2051 36.2904 28.1434C36.1669 28.1434 36.0435 28.0199 36.0435 27.8348C35.9818 26.6004 36.2287 25.3043 36.7224 24.1316C37.2162 22.959 37.9568 21.9098 38.8826 20.984C40.7341 19.1941 43.388 18.3301 45.9185 18.3301C48.5107 18.3301 51.0412 19.3176 52.8927 21.1074C53.8185 22.0332 54.5591 23.0824 55.0529 24.2551C55.5466 25.4277 55.7318 26.7238 55.6701 27.9582C55.6701 28.1434 55.5466 28.2668 55.3615 28.2668C55.1763 28.3285 55.0529 28.2051 55.0529 28.0816Z" fill="white"/>
<path d="M19.3853 26.138C18.7496 25.6937 17.793 25.8356 17.1758 26.7244C16.5586 27.6131 16.7623 28.5574 17.398 29.0018C18.0337 29.4462 18.9903 29.3042 19.6075 28.4155C20.2309 27.5205 20.0272 26.5762 19.3853 26.138Z" fill="#896024"/>
<defs>
<radialGradient id="paint0_radial" cx="0" cy="0" r="1" gradientUnits="userSpaceOnUse" gradientTransform="translate(35.7969 34.5008) scale(35.155)">
<stop offset="0.5" stop-color="#FDE030"/>
<stop offset="0.919" stop-color="#F7C02B"/>
<stop offset="1" stop-color="#F4A223"/>
</radialGradient>
</defs>
</svg>
