<svg width="72" height="70" viewBox="0 0 72 70" fill="none" xmlns="http://www.w3.org/2000/svg">
<path d="M35.7969 69.0016C18.5773 69.0016 0 58.2008 0 34.5008C0 10.8008 18.5773 0 35.7969 0C45.3633 0 54.1891 3.14766 60.7312 8.8875C67.8289 15.1828 71.5937 24.0703 71.5937 34.5008C71.5937 44.9313 67.8289 53.757 60.7312 60.0523C54.1891 65.7922 45.3016 69.0016 35.7969 69.0016Z" fill="url(#paint0_radial)"/>
<path d="M65.3537 13.9922C68.6434 19.3 70.3591 25.62 70.3591 32.6498C70.3591 43.0802 66.5943 51.906 59.4966 58.2013C52.9545 63.9412 44.067 67.1506 34.5623 67.1506C23.4159 67.1506 11.7263 62.6142 4.82617 52.9923C11.4671 63.8918 23.959 69.0021 35.7966 69.0021C45.3013 69.0021 54.1888 65.7927 60.731 60.0529C67.8287 53.7576 71.5935 44.9318 71.5935 34.5013C71.5935 26.6384 69.4519 19.6518 65.3537 13.9922Z" fill="#EB8F00"/>
<path d="M36.2906 47.0911C34.0811 47.0911 31.8901 46.7208 29.8101 45.9802C27.2488 45.0976 24.4653 46.4616 23.5827 49.0167C23.0828 50.461 23.2865 52.0533 24.132 53.3247C26.7859 57.3981 30.9828 59.62 36.2906 59.62C41.5984 59.62 45.7953 57.3981 48.4492 53.3247C49.949 51.072 49.3318 48.0292 47.079 46.5295C46.4518 46.1122 45.7367 45.8455 44.9894 45.7502C44.2421 45.6549 43.4829 45.7336 42.7711 45.9802C40.6912 46.7208 38.5001 47.0911 36.2906 47.0911Z" fill="#422B0D"/>
<path opacity="0.8" d="M17.6509 50.7324C23.616 50.7324 28.4517 46.1731 28.4517 40.5488C28.4517 34.9246 23.616 30.3652 17.6509 30.3652C11.6858 30.3652 6.8501 34.9246 6.8501 40.5488C6.8501 46.1731 11.6858 50.7324 17.6509 50.7324Z" fill="url(#paint1_radial)"/>
<path opacity="0.8" d="M54.9297 50.7324C60.8948 50.7324 65.7305 46.1731 65.7305 40.5488C65.7305 34.9246 60.8948 30.3652 54.9297 30.3652C48.9646 30.3652 44.1289 34.9246 44.1289 40.5488C44.1289 46.1731 48.9646 50.7324 54.9297 50.7324Z" fill="url(#paint2_radial)"/>
<path d="M62.9462 16.8931C57.8791 15.4673 54.1574 19.6087 54.1574 19.6087C54.1574 19.6087 53.7254 14.9119 49.3927 13.4368C44.196 11.6531 38.7092 14.4922 38.3821 21.8552C38.0118 30.2428 49.1088 41.2535 49.1088 41.2535C49.1088 41.2535 62.8845 37.5503 67.3961 29.6997C71.0684 23.3118 66.7789 17.967 62.9462 16.8931Z" fill="#F44336"/>
<path d="M62.9469 16.892C62.325 16.7269 61.6831 16.6501 61.0398 16.6636C62.8532 17.8773 64.2901 19.575 65.1873 21.5641C66.0575 23.6564 66.2859 26.3597 64.6318 29.5875C61.046 36.605 50.0045 40.95 49.2021 41.2524C50.2082 40.9685 63.0827 37.2654 67.4215 29.7172C71.0691 23.3107 66.7796 17.9659 62.9469 16.892Z" fill="#C62828"/>
<path d="M54.1523 20.3668C54.1153 19.7249 54.0166 19.083 53.8684 18.4535C53.6909 17.5554 53.3238 16.7054 52.7916 15.9604C52.2595 15.2154 51.5745 14.5925 50.7825 14.1332C49.6839 13.4913 48.468 13.084 47.209 12.9297C47.209 12.9297 49.0606 13.4913 50.3813 16.0527C51.0541 17.3981 51.4552 18.867 51.554 20.3668C51.5478 20.9161 51.6466 21.453 51.8441 21.9653C52.0663 22.4776 52.6094 22.78 53.1648 22.6936C54.0104 22.4776 54.1956 21.4222 54.1523 20.3668Z" fill="#C62828"/>
<path d="M42.154 17.4232C43.3081 15.9914 45.2029 14.6274 47.0174 15.8864C47.9802 16.5592 47.9926 18.4663 46.8137 19.3242C44.8264 20.7807 44.7338 21.7374 44.5116 22.5397C44.2401 23.4964 44.0673 24.6382 43.197 25.1196C42.3268 25.601 41.5615 25.1196 41.1048 23.7432C40.3271 21.5954 40.7221 19.2007 42.154 17.4232Z" fill="#FF847A"/>
<path d="M21.675 13.3128C16.6696 14.936 15.8673 20.4475 15.8673 20.4475C15.8673 20.4475 12.9048 16.7444 8.46104 17.9417C3.1594 19.3366 0.166039 24.7431 3.9494 31.0446C8.33143 38.2657 23.6624 41.2591 23.6624 41.2591C23.6624 41.2591 33.0745 30.5447 32.482 21.5091C31.9944 14.1522 25.4584 12.0846 21.675 13.3128Z" fill="#F44336"/>
<path d="M21.6747 13.3128C21.0637 13.5103 20.4774 13.7942 19.9404 14.1522C22.1253 14.1584 24.2607 14.7756 26.1123 15.9359C28.0009 17.1703 29.6858 19.3181 30.1055 22.9286C31.0128 30.7607 24.2237 40.4938 23.6991 41.2036C24.3842 40.4136 33.0433 30.1929 32.4755 21.5029C31.9941 14.1522 25.4581 12.0846 21.6747 13.3128Z" fill="#C62828"/>
<path d="M16.2935 21.0955C15.9108 20.5709 15.4788 20.0895 14.9974 19.6574C13.7013 18.3367 11.9053 17.6331 10.0599 17.7318C8.79463 17.8059 7.55408 18.133 6.41846 18.707C6.41846 18.707 8.27002 18.1453 10.7881 19.5525C12.1028 20.3117 13.2446 21.33 14.158 22.5397C14.4542 23.0026 14.8369 23.3976 15.2874 23.7124C15.7565 24.0148 16.3737 23.9592 16.7872 23.5828C17.3365 22.9162 16.9106 21.941 16.2935 21.0955Z" fill="#C62828"/>
<path d="M4.69028 25.3052C4.71497 24.7868 4.80755 24.2745 4.96184 23.7808C5.21489 22.7439 5.94934 21.886 6.93067 21.4725C7.87497 21.1762 9.18341 21.3861 9.6895 22.3304C10.14 23.1698 9.81294 24.1819 9.56606 25.1077C9.34388 26.1693 9.22044 27.2555 9.19575 28.3418C9.19904 28.768 9.03332 29.1781 8.73487 29.4823C8.43642 29.7865 8.02956 29.9601 7.60341 29.965C6.76403 29.965 6.10981 29.2367 5.64075 28.5393C4.98639 27.5906 4.65328 26.4571 4.69028 25.3052Z" fill="#FF847A"/>
<defs>
<radialGradient id="paint0_radial" cx="0" cy="0" r="1" gradientUnits="userSpaceOnUse" gradientTransform="translate(35.7969 34.5008) scale(35.155)">
<stop offset="0.5" stop-color="#FDE030"/>
<stop offset="0.92" stop-color="#F7C02B"/>
<stop offset="1" stop-color="#F4A223"/>
</radialGradient>
<radialGradient id="paint1_radial" cx="0" cy="0" r="1" gradientUnits="userSpaceOnUse" gradientTransform="translate(17.6509 35.8647) scale(11.7709 10.5698)">
<stop stop-color="#ED7770"/>
<stop offset="0.9" stop-color="#ED7770" stop-opacity="0"/>
</radialGradient>
<radialGradient id="paint2_radial" cx="0" cy="0" r="1" gradientUnits="userSpaceOnUse" gradientTransform="translate(72.5319 1555.68) scale(12.0105)">
<stop stop-color="#ED7770"/>
<stop offset="0.9" stop-color="#ED7770" stop-opacity="0"/>
</radialGradient>
</defs>
</svg>
