<svg width="72" height="70" viewBox="0 0 72 70" fill="none" xmlns="http://www.w3.org/2000/svg">
<path d="M35.7969 69.0016C18.5773 69.0016 0 58.2008 0 34.5008C0 10.8008 18.5773 0 35.7969 0C45.3633 0 54.1891 3.14766 60.7312 8.8875C67.8289 15.1828 71.5937 24.0703 71.5937 34.5008C71.5937 44.9313 67.8289 53.757 60.7312 60.0523C54.1891 65.7922 45.3016 69.0016 35.7969 69.0016Z" fill="url(#paint0_radial)"/>
<path d="M65.3537 13.9922C68.6434 19.3 70.3591 25.62 70.3591 32.6498C70.3591 43.0802 66.5943 51.906 59.4966 58.2013C52.9545 63.9412 44.067 67.1506 34.5623 67.1506C23.4159 67.1506 11.7263 62.6142 4.82617 52.9923C11.4671 63.8918 23.959 69.0021 35.7966 69.0021C45.3013 69.0021 54.1888 65.7927 60.731 60.0529C67.8287 53.7576 71.5935 44.9318 71.5935 34.5013C71.5935 26.6384 69.4519 19.6518 65.3537 13.9922Z" fill="#EB8F00"/>
<path d="M29.2549 54.3115H42.833" stroke="#35220B" stroke-width="8" stroke-linecap="round" stroke-linejoin="round"/>
<path d="M27.1564 35.1787L27.033 35.3021L26.7244 35.6107C26.6009 35.7341 26.4775 35.7959 26.2923 35.981C26.0948 36.1415 25.8912 36.2834 25.6752 36.413C25.4283 36.5365 25.1814 36.7216 24.9345 36.8451C24.6877 36.9685 24.3791 37.092 24.0705 37.2154C23.768 37.3265 23.4595 37.4067 23.1447 37.4623C22.8176 37.5178 22.4905 37.5363 22.1572 37.524H21.6017C21.4783 37.524 21.2931 37.4623 21.1697 37.4623C20.8549 37.4067 20.5463 37.3265 20.2439 37.2154C19.9415 37.129 19.6514 37.0055 19.3798 36.8451C19.1206 36.7216 18.8738 36.5797 18.6392 36.413C18.2072 36.1045 17.8369 35.7959 17.59 35.6107L17.2197 35.2404L17.0963 35.117C16.7107 34.7704 16.2168 34.5686 15.6989 34.5461C15.181 34.5235 14.6713 34.6817 14.2572 34.9935C13.9665 35.2205 13.7599 35.5382 13.6705 35.8961C13.581 36.2539 13.6137 36.6314 13.7634 36.9685L13.8252 37.1537C13.893 37.3265 13.9795 37.487 14.072 37.6474C14.4485 38.2831 14.9052 38.8633 15.4298 39.3755C15.794 39.7335 16.189 40.0668 16.6025 40.363C17.0901 40.7025 17.6023 40.9926 18.1455 41.2271C18.738 41.4987 19.3613 41.7023 19.997 41.8443C20.3056 41.906 20.6759 41.9677 21.0463 42.0295C21.2314 42.0295 21.4783 42.0912 21.54 42.0912H22.0338C22.7188 42.0912 23.3977 42.0295 24.0705 41.906C24.7123 41.7764 25.3295 41.5666 25.922 41.2888C26.4652 41.0543 26.9774 40.7642 27.465 40.4248C27.9094 40.1594 28.3044 39.8261 28.6377 39.4373C28.9401 39.1595 29.2116 38.8509 29.44 38.5115C29.5634 38.388 29.6252 38.2029 29.7486 38.0795C29.872 37.956 29.9338 37.8326 29.9955 37.7091C30.1004 37.561 30.1868 37.3944 30.2423 37.2154L30.3041 37.092C30.487 36.6752 30.4974 36.203 30.3332 35.7786C30.169 35.3541 29.8434 35.012 29.4277 34.8269C29.3536 34.796 29.2734 34.7652 29.1931 34.7466C28.8496 34.6052 28.4714 34.5708 28.108 34.6479C27.7446 34.725 27.4129 34.91 27.1564 35.1787Z" fill="#422B0D"/>
<path d="M54.8745 35.4068L54.7511 35.5303C54.6524 35.6414 54.5474 35.7463 54.4363 35.8389L54.0105 36.1907C53.8315 36.3264 53.6278 36.4746 53.3933 36.6227C53.1588 36.7708 52.9181 36.9128 52.6527 37.0486C52.3811 37.1843 52.0972 37.3016 51.8071 37.4004C51.5047 37.4929 51.1961 37.567 50.8813 37.6287C50.5604 37.6781 50.2395 37.7028 49.9124 37.7028H49.3692L48.9372 37.6472C48.6224 37.5855 48.3138 37.5114 48.0114 37.4189C47.7152 37.3078 47.4313 37.1782 47.1535 37.03C46.8881 36.8943 46.6413 36.7461 46.4129 36.6042C46.0488 36.3635 45.7093 36.0919 45.3884 35.7957L44.9995 35.4377L44.8452 35.2834C44.464 34.934 43.971 34.7317 43.4543 34.7124C42.9375 34.6932 42.4308 34.8584 42.0247 35.1785C41.7272 35.4074 41.5172 35.7314 41.4296 36.0964C41.342 36.4614 41.3821 36.8453 41.5433 37.1843L41.6359 37.3695C41.7161 37.5485 41.8087 37.7213 41.9074 37.8879C42.5455 38.9493 43.4068 39.8591 44.4317 40.5542C44.9193 40.8936 45.4377 41.1837 45.9809 41.4182C46.5857 41.6836 47.2152 41.8935 47.8633 42.0354C48.2027 42.0972 48.5175 42.1589 48.931 42.1959C49.1223 42.1959 49.3445 42.2329 49.4433 42.2329H49.9247C50.6159 42.2206 51.301 42.1527 51.9799 42.0169C52.628 41.875 53.2575 41.6651 53.8624 41.3997C54.4055 41.1652 54.9239 40.8751 55.4115 40.5357C56.1777 40.0161 56.855 39.3763 57.4174 38.6409L57.7136 38.2274L57.9605 37.8386C58.0531 37.6904 58.1333 37.53 58.2012 37.3633L58.2691 37.209C58.6394 36.3264 58.2197 35.3081 57.3371 34.9378C57.2754 34.9131 57.2137 34.8884 57.152 34.8761C56.7609 34.7409 56.3396 34.719 55.9367 34.8129C55.5337 34.9068 55.1655 35.1127 54.8745 35.4068Z" fill="#422B0D"/>
<path d="M10.9859 24.5633C9.62812 24.8101 9.56641 26.7851 11.0477 26.8469C14.3187 26.8901 17.4787 25.6742 19.8734 23.4523C20.7869 22.6623 21.5584 21.7242 22.157 20.675C22.515 20.1627 22.3916 19.4591 21.8793 19.1012C21.367 18.7432 20.6634 18.8666 20.3055 19.3789L20.2437 19.4406C17.8248 22.1445 14.5618 23.95 10.9859 24.5633Z" fill="#422B0D"/>
<path d="M51.7817 19.3787C51.6966 19.2571 51.5884 19.1534 51.4633 19.0736C51.3381 18.9938 51.1985 18.9395 51.0523 18.9137C50.9061 18.8879 50.7563 18.8911 50.6114 18.9233C50.4665 18.9554 50.3294 19.0158 50.2078 19.101C50.0862 19.1861 49.9825 19.2942 49.9027 19.4194C49.8229 19.5445 49.7686 19.6842 49.7428 19.8304C49.717 19.9765 49.7202 20.1263 49.7524 20.2712C49.7845 20.4161 49.8449 20.5533 49.9301 20.6748C50.5288 21.724 51.3003 22.6622 52.2137 23.4522C54.6207 25.6555 57.7746 26.8714 61.0395 26.8467C62.5825 26.785 62.459 24.81 61.1012 24.5631C57.4867 23.9703 54.1915 22.1372 51.7817 19.3787Z" fill="#422B0D"/>
<defs>
<radialGradient id="paint0_radial" cx="0" cy="0" r="1" gradientUnits="userSpaceOnUse" gradientTransform="translate(35.7969 34.5008) scale(35.155)">
<stop offset="0.5" stop-color="#FDE030"/>
<stop offset="0.92" stop-color="#F7C02B"/>
<stop offset="1" stop-color="#F4A223"/>
</radialGradient>
</defs>
</svg>
