<svg width="72" height="72" viewBox="0 0 72 72" fill="none" xmlns="http://www.w3.org/2000/svg">
<path d="M35.7969 69.3277C18.5773 69.3277 0 58.527 0 34.827C0 11.127 18.5773 0.326172 35.7969 0.326172C45.3633 0.326172 54.1891 3.47383 60.7312 9.21367C67.8289 15.509 71.5937 24.3965 71.5937 34.827C71.5937 45.2574 67.8289 54.0832 60.7312 60.3785C54.1891 66.1184 45.3016 69.3277 35.7969 69.3277Z" fill="url(#paint0_radial)"/>
<path d="M35.7969 69.3277C18.5773 69.3277 0 58.527 0 34.827C0 11.127 18.5773 0.326172 35.7969 0.326172C45.3633 0.326172 54.1891 3.47383 60.7312 9.21367C67.8289 15.509 71.5937 24.3965 71.5937 34.827C71.5937 45.2574 67.8289 54.0832 60.7312 60.3785C54.1891 66.1184 45.3016 69.3277 35.7969 69.3277Z" fill="url(#paint1_linear)"/>
<path d="M65.3537 14.3164C68.6434 19.6242 70.3591 25.9442 70.3591 32.974C70.3591 43.4045 66.5943 52.2302 59.4966 58.5256C52.9545 64.2654 44.067 67.4748 34.5623 67.4748C23.4159 67.4748 11.7016 62.9384 4.82617 53.3165C11.4671 64.216 23.9528 69.3263 35.7966 69.3263C45.3013 69.3263 54.1888 66.117 60.731 60.3771C67.8287 54.0818 71.5935 45.256 71.5935 34.8255C71.5935 26.9626 69.4519 19.976 65.3537 14.3164Z" fill="#EB8F00"/>
<path d="M43.9864 40.0167C43.7951 39.9858 43.6099 39.8994 43.4495 39.7698C40.8017 37.5973 37.4689 36.1346 33.8213 35.5359C30.1738 34.9434 26.5509 35.2767 23.3477 36.4987C23.1563 36.5728 22.9527 36.5913 22.7613 36.5604C22.3355 36.4925 21.9837 36.1716 21.8602 35.7396C21.743 35.3199 21.8788 34.8817 22.2182 34.5978C25.5881 31.7464 30.0688 30.5305 34.5126 31.2526C38.9563 31.9747 42.8199 34.5484 45.1159 38.3194C45.3442 38.6959 45.3381 39.1526 45.0974 39.5168C44.8505 39.8933 44.4123 40.0846 43.9864 40.0167Z" fill="#422B0D"/>
<path d="M46.394 15.2061C48.9801 15.2061 51.3315 17.3909 51.3315 21.02C51.3315 24.649 48.9801 26.8339 46.394 26.8339C43.808 26.8339 41.4565 24.649 41.4565 21.02C41.4565 17.3909 43.808 15.2061 46.394 15.2061Z" fill="#422B0D"/>
<path d="M25.0205 9.60156C22.4345 9.60156 20.083 11.7864 20.083 15.4155C20.083 19.0445 22.4345 21.2294 25.0205 21.2294C27.6065 21.2294 29.958 19.0445 29.958 15.4155C29.958 11.7864 27.6127 9.60156 25.0205 9.60156Z" fill="#422B0D"/>
<path d="M45.567 17.891C44.9313 17.4466 43.9746 17.5885 43.3574 18.4773C42.7402 19.3722 42.9439 20.3103 43.5796 20.7547C44.2153 21.1991 45.172 21.0571 45.7891 20.1684C46.4125 19.2735 46.2088 18.3353 45.567 17.891Z" fill="#896024"/>
<path d="M21.0642 2.56628C20.7865 2.09722 20.7494 1.52941 20.9654 1.06035C21.1815 0.591284 21.6135 0.270346 22.1875 0.165424C25.4586 -0.377701 28.9457 0.430815 31.7724 2.38113C32.8216 3.10324 33.7536 3.9673 34.5251 4.9548C34.5806 5.02886 34.6238 5.09058 34.6608 5.15847C35.0744 5.85589 34.9386 6.65824 34.3276 7.16433C33.7721 7.62105 32.8401 7.75066 32.118 7.11496L32.0563 7.06558C29.4024 4.81285 25.9153 3.46738 22.4837 3.38097C21.8912 3.3748 21.3666 3.07855 21.0642 2.56628Z" fill="#422B0D"/>
<path d="M53.9108 13.6076C54.386 13.3361 54.6946 12.867 54.744 12.3424C54.7872 11.824 54.5712 11.3364 54.1206 10.9599C51.547 8.87381 48.1092 7.84928 44.6962 8.1517C43.4248 8.2628 42.1904 8.55287 41.0301 9.02811C40.9437 9.06514 40.8758 9.10217 40.8079 9.1392C40.1043 9.54037 39.8266 10.3057 40.1043 11.0463C40.2487 11.4252 40.5245 11.7397 40.8814 11.9323C41.2382 12.1249 41.6524 12.1828 42.0485 12.0955L42.1225 12.0832C45.5417 11.4351 49.2387 11.9906 52.2691 13.6076C52.7875 13.9039 53.3924 13.9039 53.9108 13.6076Z" fill="#422B0D"/>
<path d="M24.1011 11.7796C23.4654 11.3353 22.5088 11.4772 21.8916 12.366C21.2744 13.2547 21.4781 14.199 22.1138 14.6434C22.7495 15.0878 23.7061 14.9458 24.3233 14.0571C24.9405 13.1683 24.743 12.224 24.1011 11.7796Z" fill="#896024"/>
<path opacity="0.66" d="M0.542969 42.3621C1.1725 40.7512 3.8943 40.7265 5.90633 41.7017C9.81313 43.5964 9.35023 47.7501 11.3067 48.571C13.257 49.3918 19.4412 44.3309 28.1251 43.5285C29.1064 43.436 34.8648 42.7139 35.4264 45.1332C35.6486 46.0899 34.0192 46.275 34.0192 46.275C30.4766 47.5896 26.903 48.9166 23.7369 50.9842C20.1572 53.3233 17.0157 56.6376 12.8497 57.6066C11.2327 57.9831 9.39344 57.9337 8.07266 56.9215C6.43711 55.6748 6.0668 53.4221 5.4743 51.4532C4.79539 49.2005 3.65977 47.0835 2.16617 45.2628" fill="url(#paint2_linear)"/>
<path d="M0.468935 42.3561C-0.654347 43.7201 1.73417 47.343 2.16003 49.1946C3.18456 53.6445 2.13534 54.7493 2.07979 58.7116C2.0119 63.0689 3.34503 66.735 6.63464 69.0742C9.75761 71.2961 13.1953 71.5614 18.0094 70.1234C22.8235 68.6853 26.076 68.025 26.3229 65.655C26.5019 63.933 25.0392 63.3158 25.0392 63.3158C25.0392 63.3158 25.786 63.0072 26.1192 62.2111C27.2672 59.4707 24.9774 58.8906 24.9774 58.8906C24.9774 58.8906 25.3231 58.5203 25.7674 57.65C26.4525 56.2861 26.3476 54.4345 24.3726 53.8296C23.4653 53.5519 23.2123 53.7 23.2123 53.7C23.2123 53.7 24.385 52.3669 26.5142 51.4473C29.8347 50.0216 33.7662 49.1575 34.7537 48.3243C36.1794 47.1208 36.2658 44.7138 33.7477 43.9793C30.131 42.9239 23.4777 45.405 19.4351 47.9664C15.374 50.54 11.6647 51.9349 10.4365 51.4658C9.20831 50.9968 8.43065 50.2006 7.96159 48.3552C7.09136 44.936 6.42479 43.6029 4.94354 42.3191C3.72151 41.2452 1.333 41.3069 0.468935 42.3561Z" fill="url(#paint3_radial)"/>
<path d="M20.5393 55.7372C20.5393 55.7372 19.632 55.1447 23.2611 52.2254C25.7237 50.2442 27.1494 49.8862 30.1057 49.158C36.0862 47.6891 35.7036 45.8066 35.7036 45.8066C36.0245 48.5778 33.2842 49.195 31.2783 49.8245C31.0685 49.8924 30.871 49.9665 30.6797 50.0159C23.7919 51.7563 21.391 56.2865 20.5393 55.7372Z" fill="url(#paint4_linear)"/>
<path d="M26.1561 62.6065C26.4955 62.0757 26.9523 60.829 26.5573 59.6316C26.4091 59.1811 26.1005 58.6318 25.471 58.1812C25.5451 58.0825 25.6191 57.9899 25.687 57.8788C26.0265 57.348 26.4647 56.126 25.8969 55.0089C25.3167 53.8609 23.8108 53.6758 23.8108 53.6758C23.8108 53.6758 24.7921 54.1263 25.0081 55.12C25.1748 55.8853 24.86 57.0456 24.6995 57.3542C24.0083 58.7059 23.2059 58.9651 22.3851 59.1317C20.8915 59.428 21.3544 60.0452 21.3544 60.0452C21.4778 60.5389 23.2491 60.0822 24.5823 59.0823C24.9834 59.3107 25.2488 59.6255 25.3784 60.0205C25.6191 60.7673 25.292 61.5819 25.1377 61.9029C24.7427 62.7114 24.0453 63.4335 22.9591 63.7298C21.6259 64.0939 21.9963 64.5877 21.9963 64.5877C22.0518 64.5815 22.058 65.6369 24.7859 63.9087C25.1069 64.5259 25.5327 65.8961 24.681 66.791C21.7926 69.8276 13.2754 71.0064 13.2754 71.0064C17.5772 71.0064 23.533 69.34 25.3723 67.8094C26.0265 67.2662 26.5141 66.4886 26.5141 65.4949C26.5141 64.4272 26.2055 63.6619 25.6623 63.2113C25.8475 63.0262 26.008 62.8348 26.1561 62.6065Z" fill="url(#paint5_linear)"/>
<defs>
<radialGradient id="paint0_radial" cx="0" cy="0" r="1" gradientUnits="userSpaceOnUse" gradientTransform="translate(35.7969 34.827) scale(35.155)">
<stop offset="0.5" stop-color="#FDE030"/>
<stop offset="0.919" stop-color="#F7C02B"/>
<stop offset="1" stop-color="#F4A223"/>
</radialGradient>
<linearGradient id="paint1_linear" x1="35.7969" y1="69.3277" x2="35.7969" y2="0.326172" gradientUnits="userSpaceOnUse">
<stop stop-color="#F4A223"/>
<stop offset="0.081" stop-color="#F7C02B"/>
<stop offset="0.54" stop-color="#FDE030" stop-opacity="0"/>
</linearGradient>
<linearGradient id="paint2_linear" x1="18.1279" y1="61.6782" x2="17.9736" y2="41.0795" gradientUnits="userSpaceOnUse">
<stop stop-color="#BF360C"/>
<stop offset="1" stop-color="#BF360C" stop-opacity="0.2"/>
</linearGradient>
<radialGradient id="paint3_radial" cx="0" cy="0" r="1" gradientUnits="userSpaceOnUse" gradientTransform="translate(22.1267 47.6343) scale(36.5443 34.5015)">
<stop offset="0.268" stop-color="#FFF176"/>
<stop offset="1" stop-color="#FFC400"/>
</radialGradient>
<linearGradient id="paint4_linear" x1="20.7849" y1="54.4127" x2="36.3356" y2="46.6892" gradientUnits="userSpaceOnUse">
<stop offset="0.127" stop-color="#DA6727"/>
<stop offset="1" stop-color="#FFC400"/>
</linearGradient>
<linearGradient id="paint5_linear" x1="19.975" y1="69.7436" x2="20.1052" y2="46.3072" gradientUnits="userSpaceOnUse">
<stop offset="0.127" stop-color="#DA6727"/>
<stop offset="1" stop-color="#FFC400"/>
</linearGradient>
</defs>
</svg>
